<svg xmlns="http://www.w3.org/2000/svg" fill="none" viewBox="0 0 216 580"><path fill="#CCC" stroke="#fff" stroke-width=".5" d="m212.609 82.213-2.277 3.984-1.847 4.063-2.044 2.193L203.353 98l-3.928 4.568-.116-.497-.796-.453-2.745 1.133-1.307.16-.627.534-.49 1.111-.511 2.024-2.869.395-1.809 1.835-2.001 1.418-1.248.379-.898.586-3.118.219-1.503.972-.066-.936-.357-.394-2.409-1.089-.913-.651.037-.293 2.386-2.426 1.409-2.953.387-2.616.227-5.423.883-3.37.241-2.251-.343-2.375-.548-1.418-1.635-3.209-1.11-1.19-.525-.907-.942.409-.576-.322-.263-.636.036-.774.73-1.615.256-1.28.555-7.659-.212-3.457-1.453-2.734-.044-.701 2.066-2.069 1.3-2.485.591-.687 1.35-.409.365.424.044-3.888.344-3.275 1.876-5.014.467-1.82.007-1.008-.606-2.61-.226-1.995.087-3.267.613-2.346 1.081-2.5-.117-.387-.723-.424-1.584-.212-.752.096-1.649.884-.942.241-.934-.227-1.052-.986.475-1.192.591-.774 3.65-1.718 3.847-2.31 1.3-1.25 1.869-2.989 1.043-.95.782-.307 3.16.27 1.913-.328 2.526-1.053 2.336-1.907.737-1.009.395-1.184.583-3.822 1.08-1.725 1.913-1.396L211.872.66l.65.505.175 1.074-.453 1.915-1.314 2.178-2.504 2.858-1.073 2.792-.387 2.711.606 6.088-.19 1.024-1.445 2.47.934 1.126 1.854 1.586.818 1.14.416.723.847 3.048.161 1.762-.249 1.19-.474 1.221-1.124 1.228-.402.804.241 1.623 1.044.373 1.723.182.956.446 2.657 3.845-.299 3.925-2.014 1.783-.234.621.284.819 1.424 1.615.146.643-.182.365-.672.402-1.416.169-2.505-.666-.532.432-.299.782.635 2.616-.373 4.707.657 2.142 1.081 9.947 2.19 3.04.43 1.046.008.826-.577 1.593-.482.833z"/><path fill="#CCC" stroke="#fff" stroke-width=".5" d="m153.559 153.649-.832-.738.037-.753-.891-1.154-.73-2.149.153-2.967-.394-3.187-2.044-3.465-2.037-1.52-1.065-.263-2.417-.044-6.153 1.133-1.468-.007-1-.264-1.978-.979-1.927-1.418-2.249-2.331-1.737-.95-1.219.182-.672.337-.701.796-.664-1.126-.314-.328-1.467-.578-.416-.292-.949-1.776-.351-.329-.452-.204-.73.285-.913 1.49-1.365.658-.38.329-.211 1.118-.277.417-.811.249-.832 1.527-.526.453-.766.285h-.351l-2.065-.658h-1.957l-.526-.168-.452-.533-.314-.746-.489-.205-.212.162-.562.043-.38-.986-.386-.293-.767-.248-.248-.789.387-1.279.066-.987-.314-.373-.694-.292-.314-.702-.248-.124-.591.043-.351-.336-.211-.781v-1.243l-.49-.534-.241-.088-.357-.329-.103-.577.285-.417.49-.16h.941l.978.409.591.088.775-.169.101-.54-.276-.409-1.892-.498-.416-.577-.072-.621.138-.87.489-.869.351-.373.701-.285h.627l.766.204 1.402.702h.562l.38-.329.387-.621.905-2.149.424-.585 2.204-1.235.343-.336.212-.453-.037-.906-.416-.585-.598-.454-.204-.496.065-1.492.175-.496.314-.329.314-.044.35.336.636 1.074.24.125.453-.168.803-.906.212-.461.109-.578v-.328l-.285-.746 1.191-.869.277-.373.073-.293-.562-1.491-.066-.621.066-.285 1.854-2.946.073-.87.241-.788-.037-.658-.24-.702-.665-1.038-.912-2.236-.03-.914.49-1.908-.11-.577-.803-.585-2.343-.701-1.292-1.119-1.117-.584v-.541l.416-1.615.036-.658-.277-.38-.665-.373-.488-.534-.278-.745-.11-.913-.233-.06.372-2.725-.503-1.484-.876.124-.241-.358-.285-.212-.416-.036-.139.124v.328l-.248-.08-.314.037v-.329l.562-1.491.066-1.081.489-2.033.036-1.205.11-.249-.036-.497.065-.044v-.417l.146-.496-.036-.205.314-.79v-.372l.212-.088v-1.118l.138-.124.102-.621.49-.914-.037-.585-.102-.204.102-.088v-.541l.175-.329-.029-.417.204-.453-.036-.124.175-.088-.066-.416.241-.497.11-.622.175-.336.066-.621.35-.621-.139-.08v-.337l.351-.292-.073-.08.109-.337-.073-.204.248-.373-.072-.417h.101l-.029-.453.168-.132.036-.95.139-.292.073-1.374.139-.248v-.454l-.102-.131v-1.418l5.614-.08 3.964-.337 4.46.775.438-.19.722-.782 1.453-.475 4.657-.154 4.848-.68 2.489.593 2.117 4.027 1.183 1.36 1.898 1.125.73.212 3.197-1.425 3.453-.278.913-.483 2.146-2.068.62-.848 1.03-.76.547-.058 2.219.533 2.125-.804.299-.358.168-1.893.284-.628 2.395-1.016.628-1.499.256-3.274.788-3.633.81-1.41.62-1.667-.102-1.82-.453-2.046.059-1.17 1.073-2.448.73-.614 1.183-1.556 1.204-2.66.299-.315.884.723 2.978 4.254.489.154.46-.446 1.052.986.934.227.942-.241 1.649-.884.752-.096 1.584.212.723.424.117.388-1.081 2.5-.613 2.345-.087 3.267.226 1.996.606 2.609-.007 1.009-.467 1.82-1.876 5.013-.344 3.275-.043 3.888-.366-.424-1.35.41-.591.686-1.3 2.485-2.066 2.069.044.702 1.453 2.733.212 3.457-.555 7.66-.256 1.279-.73 1.615-.036.774.263.636.576.322.942-.41.525.907 1.11 1.191 1.635 3.21.548 1.417.343 2.375-.241 2.251-.883 3.37-.227 5.423-.387 2.616-1.409 2.953-2.386 2.426-.037.293.913.651 2.409 1.089.357.394.066.936-3.548 1.549-.818.935.234 2.098-1.423.563.058.907-.307.358-1.109.314-1.818 1.381-.168 1.528.394.46-.182 2.215.285.687.934.511.248.929-.598 1.388-.088 1.396 1.292 2.683-.124.307-1.256-.015-.226 1.403-.577-.014-.729-.483-.271.146.08.885.847 1.374-.277.468-1.271.27-.671.943.599.453.81-.022.803 1.835.942.38.241.402-.153.76-1.555 2.799-.11.753.197.672 1.044.512.255.497-.314.731-.613.022-.423.387.307 1.966-1.475.461.365 3.361-.219.549-.942.277-.131.242 1.205 2.031-1.03-.101-2.92-.841-3.708-1.733-1.577-.482-2.862-.124-1.883.548-1.592-.256z"/><path fill="#CCC" stroke="#fff" stroke-width=".5" d="m80.807 153.656-.073-.124.146-.336.242-.117.101-.336v-.081h-.343l.205-.285v-.211l.175-.33.285-.123-.037-.125.066-.037.526-2.558.073-1.198.38-1.155.21-1.118-.277-.738h-1.54v-.213l1.365-.036.103-.088.072-.329.139.125.037.292h.415l.037-.088h-.24l-.11-.116v-.169l.138-.044.074-.285v-.168l-.139-.043v-.117l.139-.044.036.124h.102l.175-.124-.073-.124.037-.454.387-.665-.073-.205-.205.081-.036-.577.139-.081v-.329l.138-.248-.072-.168.247-.285v-.293l-.138-.124.066-.489.284-.213.037-.577.343-.453-.343-.044-.037-.205h.175l.205-.453.285-1.242.138-.205.037-.533.175-.336-.036-.534-.212-.044-.102-.124v-.41l.175-.54.277-.286.249.037.204-.41-.037-.168-.24-.036v-.249l-.176-.124.416-.789-.102-.205.036-.329.212-.248.278-1.031.139.081.072-.169-.072-.285.277-.54-.066-.329-.248-.248v-.249l.248-.249.102-.577-.138-.081v-.211l.211-.614.205-.292-.103-.169.103-.285-.03-.702.14-.292v-.372l-.11-.081.146-.417.139-1.322.174-.044.176-.409.066-1.199.211-.914.241-.409-.205-.124.176-.914-.037-.658.315-.292.036-.168.036-1.323.205-1.367-.037-1.235.146-.293v-.124l-.146-.124v-.205l.073-.087-.036-.286.211-.168-.036-.248-.175-.124v-.329l.211-.621v-.329l.387-.461v-.204l.278-.293.489.044.35-.453.24-.541.147-.621-.11-.373.249-.292.138-1.528.278-.665.248-2.894.139-.541v-1.286l.066-.578.146-.329.168-2.112-.14-.665h.176l.036-.08.103-.994-.03-.504-.174-.33h.101l.073-.124.103.124.102-.043v-.124l-.102-.037.102-.337-.14-.123-.1-.373v-1.323l.174-.205-.138-.249.204-.248.313.08.775-.745.38-.088.46.044.627-.329.138-.248.103-.088.11.044.101-.168h.314l.46.212.314.577h.314l.175.168.628.25.38.035v.125l.175.211.95.045.904-.256v.131l-.416.161-.073-.08-.278.204h-.138l-.876-.08-.526-.168-.628-.453-.277.08.175.044.066.16.139.044-.03.168.73.373.103.205.146.044.204.248.073.292.139-.087v-.41h.139l.072.374h.175l.066-.249-.175-.168v-.169l.037-.08.211.044.278.41.11.79.24.08.139.336h.452l.176-.125.387-.044-.103-.292.139-.037.555.373.109.658.701-.205.029-.124-.102-.168-.35-.036-.066-.417-.285.044-.204-.125.555-.168 1.117-.745.248-.044.138-.285.212-.044v-.168l.241-.124v-.205l.175-.168.212-.453.489-.46.738-1.075 1.255-2.945.212-.08-.073-.293.314-1.038.138-.08-.036-.168.285-.79.175-.124-.074-.161.351-1.206-.036-.168.314-1.615.036-1.828-.35-.716.876-.124.503 1.484-.372 2.726.233.059.11.913.278.745.488.534.665.373.277.38-.036.658-.416 1.615v.54l1.117.585 1.292 1.119 2.343.701.803.585.11.577-.49 1.908.03.914.912 2.236.665 1.038.24.702.037.658-.241.789-.073.869-1.854 2.946-.066.285.066.621.562 1.491-.073.293-.277.373-1.191.869.285.746v.328l-.109.578-.212.461-.803.906-.453.168-.24-.125-.636-1.074-.35-.336-.314.044-.314.329-.175.496-.065 1.492.204.496.598.454.416.585.037.906-.212.453-.343.336-2.204 1.235-.424.585-.905 2.149-.387.621-.38.329h-.562l-1.402-.702-.766-.204h-.627l-.701.285-.351.372-.489.87-.138.87.072.621.416.577 1.892.498.276.409-.101.54-.775.169-.591-.088-.978-.409h-.941l-.49.16-.285.417.103.577.357.329.241.088.49.534v1.243l.211.781.351.336.591-.043.248.124.314.702.694.292.314.373-.066.987-.387 1.279.248.789.767.248.386.293.38.986.562-.043.212-.162.489.205.314.746.452.533.526.168h1.957l2.065.658h.351l.766-.285.526-.453.832-1.527.811-.249.276-.417.212-1.118.38-.329 1.365-.658.913-1.49.73-.285.452.204.351.329.949 1.776.416.292 1.467.578.314.328.664 1.126-1.606 1.82-.438.907-1.511 1.461-2.474 1.806-3.139 1.6-5.06 1.915-.956.723-1.168 2.193-.555 2.068-.591 3.808-1.095 3.041-.255 1.849-.577-.037-3.504 1.111h-.906l-.561-.124-.877-1.155-.868-.496-.46-.907-.627-.702-.417-.292-.526-.161h-3.007l-1.92-.453-1.92-.124-1.226.161-1.504.577-.905.044-.563-.124-1.43-.622-1.154-.204-1.628.065z"/><path fill="#CCC" stroke="#fff" stroke-width=".5" d="m56.236 232.892 1.153-2.888.139-.621.387-.819v-.16l.138-.168.175-.899.212-.41.03-.497.145-.036.03-.168.11-.037v-.293l.065-.123h.11v-.205h.065l.285-.49.175-.08.03-.249 1.05-1.557.906-2.221.875-2.295 1.54-5.321 1.03.168.591.453.84.161 2.24-.037 1.081.614.876.125 1.957-.125 1.05-.292.87-.819 1.679-2.053.84-.49h.627l.7.285.629 1.067.489.205.7-.285.14-.249.386-.241.84-.212 1.218.124.49-.489.036-.658-.175-.49-.526-.541-1.394-.614-.664-4.027-.175-.489-.49-.534-1.226-.826-.416-.577-.102-.57.102-.826.176-.49.036-1.279.175-1.147 1.08-1.316.84-1.52.387-.951.03-1.271-.351-.987.248-.782.073-1.937-.212-.489-1.088-.578-.379-.658-.664-.328-.942-.826-.986-.373-2.686-.329-.927-.029.211-.563v-.205l-.109-.124.037-.212.387-.899.175-.168-.037-.329.314-.577.037-.49.38-.578.072-.577.175-.41-.073-.415.285-.286v-.658l.241-1.074.212-.329.35-.95-.037-.49.139-.205.176-.577-.037-.124.394-1.031.03-.614h-.11v-.124l.248-.416.073-.943.38-.746.073-.409.313-.702-.036-.497.139.088.11-.044-.074-.702.139-.738.139-.124-.03-.292.52-2.346v-.168l-.177-.124-.029-.206.453-.248.037-.124.24-1.396.139-.373v-.497l.212-.409.591-2.726v-.49l.175-.906h-.204v-.088l.38-.365.109-.249.066-.577-.066-.498.205-.826-.242-.16.176-.373.138-.088.278-.738.11-.043.101-.615 1.628-.065 1.154.204 1.43.622.563.124.905-.044 1.504-.577 1.226-.161 1.92.124 1.92.453h3.007l.526.161.416.292.628.702.46.907.868.496.877 1.155.562.124h.905l3.504-1.111.577.037-.263 1.915-.876.855-3.27 1.469-.84 1.06-1.336 2.514-.139 3.998.591 4.246-.416 1.097-1.065.76-1.73 2.507-2.27 5.152-.22 1.733.059 1.717 1.715 2.573.68 1.425.955 4.225.153 1.9-.4 1.55-1.023 1.936-.146 1.177.394.987 1.314 1.403 1.446 2.755.416 1.703-.292 2.185-1.008 2.201.03.994.24.796-.554.454.547 1.461-1.722 3.684.306 3.347 1.928 2.602 2.875 2.295.606 2.368-1.11 3.45-6.285 1.126-.11.168-3.233-.139-1.949-.241-1.132.124-.927.723-1.131 3.26-1.336.841-4.015.848-2.059.723-2.57 2.529-.554 1.433h-.285l-.386.285-.804.898-1.263 1.762-.664.701-.38.285-.81.205-.416-.285-.7-.987-.906-2.828-.314-.695-.562-.818-.7-.614-2.162-1.228-.284-.044-.803.899-.387.293-.518.08-1.19-.168-.599.124.11.41.978.409.24.782.701.658.037.321-.314.373-.314.037-.803-.205-.248.088-.036.943-.35.365-1.154.205-.314-.045-.767-.613-.766-.205-1.402-.08-.591-.453-.175-.49v-.365l.277-.41.591-.409.95-.41.35-.328.24-.453-.102-.578-.452-.57-1.3-.694-.313-.738v-.578l.35-.658.453-.241.313-.044 1.263.453.555.081.665-.037.35-.292-.03-1.593.315-1.031-.249-1.104.073-.285.979-1.03.102-.534-.241-.409-.46-.242-1.22.447-.875-.081-.767-.943-.627.081-.35.328-.49.206h-.474z"/><path fill="#CCC" stroke="#fff" stroke-width=".5" d="m63.857 213.355.277-1.089.278-.651.11-.95.277-.365-.176-.124.249-.826.204-.329v-.242l.146-.328.175-.205.102-.906.416-.329v-.373l-.138-.117.386-.372h.242l.313-.249.387-.614.249-.782.175-.249.029-.365-.066-.088.212-.08-.146-.205.11-.124-.074-.037.074-.292.525-1.228.03-.372.153-.081.095-.249-.176-.496v-.41l.277-.205.14.045.211-.658.314-.621-.175-.33.036-.241h.103l.072.205h.139l.387-1.191.241-1.236.314-.416.11-.285-.037-.161.102-.088.35-1.352v-.621l.424-1.067-.073-.453.387-.205-.036-.329-.249-.168.073-.943.139-.124.212.08.065-.124.497-1.644.343-1.849.248-.424.927.029 2.686.329.986.373.942.826.664.328.38.658 1.087.578.212.489-.073 1.937-.248.782.35.987-.03 1.271-.386.951-.84 1.52-1.08 1.316-.175 1.147-.036 1.279-.176.49-.102.826.102.57.416.577 1.227.826.489.534.175.489.664 4.027 1.395.614.525.541.175.49-.036.658-.49.489-1.218-.124-.84.212-.387.241-.139.249-.7.285-.49-.205-.627-1.067-.701-.285h-.628l-.84.49-1.678 2.053-.87.819-1.05.292-1.957.125-.876-.125-1.08-.614-2.241.037-.84-.161-.59-.453-1.03-.168z"/><path fill="#C7B0B0" stroke="#fff" stroke-width=".5" d="m157.502 292.378-.052 7.52-.445 2.953-2.073 5.92-4.76 8.559-1.452 2.952-1.351 2.39-.65 2.953 1.439 3.129 5.613 7.564 1 2.149.628 3.055.132 2.288-.855 3.749-.774 2.682-4.818 7.433-.51 2.982.299 2.383 1.029 2.85-.007 3.011-2.183 2.011-4.731 3.106-3.357 7.426-.044 2.645.635 2.405-.643 2.946-2.409.869-1.876 2.273-1.109 3.04-.015 5.95-1.773 4.144-3.089 5.643-.664 3.238-1.869 1.739-3.715 7.177-.3 2.398-2.847 13.213-.868 2.603-1.737 2.499-.497 1.966 4.351 8.194.664 2.265-.401 1.733-2.796 3.099-.804 2.499.431 2.895-2.394 5.32 3.942 17.461-9.738 13.989-2.621 10.423.394 11.313-3.708 7.426-.562 2.719.364 2.156-.364 2.916-2.146 8.939v4.867l.335 3.041.029 2.814-1.649 2.025-2.249 1.651-1.913 2.222-1.35 2.712-1.226 3.449-.249-.08-.525.037-.314-.322h-.277l-.103.402-.145.044-.067.395-.175.204-.036.198h-.314l-.066.197-.32.124-.14.278-.102.599-.314.527h-.277v.117l-.387.438-.453.278-.11.401-.488.483v.599l-.314.197-.453.644-.248.197v.366l-.555.635-.525.242-3.176-3.684-1.657-3.136-.598-2.411-.504-4.203 1.183-3.932.59-3.94-.569-2.711-2.255-3.94.087-6.95-12.87-36.172.256-2.185-4.074-11.278-10.84-30.689-2.562-9.647-8.782-5.753-.322-4.465 2.606-7.353-5.46-6.41.365-7.944-3.643-15.174-11.081-23.308-7.183-21.056-10.38-34.497 5.664-4.254 5.6-4.838 1.386-2.551-.03-3.954-.313-4.232 1.102-3.684 4.19-5.394 12.63-12.249 3.664-.877 1.117-1.981-.015-2.829-1.715-2.536-5.468-5.116 3.037-4.948.526-.329.248-.366-.037-.08-.211-.043.036-.366-.11-.044v-.117l.424-.497v.169l-.314.365.35.08.066.125.11-.037 1.92-3.194.248-.862.452-.322.701-.907.278-.57-.037-.204.387-.49.204-.533.176-.124.073.168h.138l2.132-3.809.387-.533.978-1.966.555-.694.285-.819 1.394-2.419 1.263-2.704.628-1.06.627-1.52.212-.366.102-.044-.036-.124.35-.651.35-.986.453-.819.526-1.228-.38-.409-.212-.702.037-.57.343-.862h.11v.285l-.14.088-.21.489v.695l.452.782h.284l.066-.205-.35-.204v-.125l.139-.08-.03-.41.102-.124.037-.329v-.124l-.139-.08v-.168h.314l.139.168h.803l.073-.205.277-.285.066-.168-.175-.08-.03-.205.03-1.067.11-.081.036.161h.102v-.08l.277-.161 1.044-2.631.81-1.739h.475l.49-.206.35-.328.627-.081.767.943.876.081 1.219-.447.46.242.24.409-.101.534-.979 1.03-.073.285.249 1.104-.314 1.031.029 1.593-.35.292-.665.037-.555-.081-1.262-.453-.315.044-.452.241-.35.658v.578l.313.738 1.3.694.453.57.102.578-.241.453-.35.328-.95.41-.591.409-.277.409v.366l.175.49.591.453 1.402.08.766.205.767.613.314.045 1.153-.205.35-.365.037-.943.248-.088.803.205.314-.037.314-.373-.037-.321-.7-.658-.241-.782-.978-.409-.11-.41.599-.124 1.19.168.518-.08.387-.293.803-.899.284.044 2.162 1.228.7.614.562.818.314.695.905 2.828.701.987.416.285.81-.205.38-.285.665-.701 1.262-1.762.804-.898.386-.286h.482l.701.695.803 1.191.526 1.184.562 1.842.277.373.423.241 1.117-.241.628.08.452.161.629.782v.533l-.665 1.389.073.533.562 1.513.066.614-.066.943-.35.695-.11.577.175 2.207-.102 1.192.314 1.023v1.016l-.212 1.147.315.738 1.927 1.104 1.817 1.228 1.709.943.562.49.7.979 1.957.489.416.205 2.738 2.127-1.95 2.909-1.11 5.533.548 5.993-.467 2.558-2.519 4.787-2.788 3.603-2.446 4.919.344 2.924 1.409 2.288 2.022 1.673 3.124.841 5.716-.753 5.27-1.315 5.147.431 7.256.467 2.657-1.381 1.745.402 2.723-.468 2.358-.205 3.022-.57 1.847-1.11 3.672-3.765 3.132-3.53 4.073-1.813 4.183-3.054 4.446-3.933 1.985-.701 8.315.124-.014 2.544z"/><path fill="#CCC" stroke="#fff" stroke-width=".5" d="m125.228 253.1-.175.278-6.344.161-5.358 2.199-6.578 6.513-5.898 2.835-2.088 1.828-3.84 4.151-1.145 1.915-2.738-2.127-.416-.205-1.957-.489-.7-.979-.563-.49-1.708-.943-1.817-1.228-1.927-1.104-.315-.738.212-1.147v-1.016l-.314-1.023.102-1.192-.175-2.207.11-.577.35-.695.066-.943-.066-.613-.562-1.514-.073-.533.665-1.389v-.533l-.629-.782-.452-.161-.628-.08-1.117.241-.423-.241-.277-.373-.563-1.842-.525-1.184-.803-1.191-.7-.695h-.198l.555-1.432 2.57-2.529 2.058-.723 4.015-.848 1.336-.841 1.131-3.26.928-.723 1.131-.124 1.95.241 3.233.139-1.438 2.127 1.051 3.954 2.431 1.045 3.475.496 3.205-1.147 2.364-2.573 2.395-1.418 2.774 2.566 2.526 1.213 5.438 2.193 5.833-.029 2.292 2.397-.372 5.335-1.314 2.054z"/><path fill="#CCC" stroke="#fff" stroke-width=".5" d="m40.562 281.838.015 2.829-1.117 1.988-3.643.87-11.643 11.284-1.008.972-4.197 5.401-.496 1.653-.606 2.031.314 4.232.029 3.954-1.387 2.551-4.65 4.02-.957.826-5.664 4.254L.66 312.44l.277-.212 3.738-3.661 4.3-4.612 1.364-1.221 1.154-1.059 2.343-2.449 1.854-2.039 2.971-3.589.738-1.023.978-1.14 2.76-3.063 5.73-7.403 3.153-4.561 1.358-2.193 5.475 5.087 1.708 2.536zm129.386-99.641-.35-1.176-.125-2.376-.488-2.119.452-3.282-.861-2.141.029-1.053.613-1.725-.986-2.645.095-1.192.402-1.038.357-2.221-.306-.871-.927-1.154.241-2.66-2.92-.841-3.708-1.733-1.585-.482-2.862-.124-1.883.548-1.591-.256-.832-.738.036-.752-.898-1.155-.73-2.149.154-2.967-.395-3.187-2.043-3.464-2.038-1.521-1.065-.263-2.424-.036-6.154 1.133-1.467-.008-1-.263-1.978-.979-1.935-1.418-2.241-2.332-1.745-.95-1.219.191-.664.335-2.314 2.617-.438.906-1.504 1.462-2.482 1.806-3.131 1.6-5.06 1.915-.956.723-.752 1.411-.416.789-.555 2.069-.584 3.807-1.095 3.041-.518 3.764-.884.855-3.27 1.47-.84 1.059-1.335 2.515-.139 3.997.591 4.247-.416 1.103-.263.19-.795.571-1.73 2.506-2.278 5.153-.212 1.732.06 1.718 1.715 2.572.678 1.426.956 4.224.154 1.9-.402 1.55-1.022 1.937-.073.592-.073.585.394.979 1.314 1.403.175.329 1.27 2.427.417 1.702-.292 2.178-1.015 2.201.03.994.24.796-.555.454.555 1.461-1.722 3.691.306 3.347 1.928 2.603 2.876 2.294.605 2.369-1.117 3.449-6.277 1.126-1.555 2.302 1.05 3.954 2.432 1.045 3.475.505 3.205-1.155 2.364-2.573 1.716-1.016.686-.402 2.767 2.565 2.533 1.214 5.431 2.192 5.84-.029 2.292 2.397-.379 5.336-1.314 2.054-.175.27-6.344.168-5.366 2.193-5.438 5.386-1.139 1.126-5.898 2.836-2.088 1.827-3.84 4.151-1.146 1.915-1.95 2.909-1.109 5.525.548 5.994-.467 2.558-2.519 4.787-2.789 3.603-2.445 4.919.343 2.924 1.416 2.288 2.015 1.673 3.125.833 5.708-.752 5.278-1.316 5.139.431 7.256.468 2.658-1.382 1.744.402 2.723-.467 2.351-.197 3.029-.57 1.847-1.111 3.672-3.765 3.132-3.53 4.073-1.812 4.176-3.055 1.219-1.075 3.234-2.858 1.986-.701 8.314.117.088-6.096.255-6.571 2.658-9.128 2.73-8.603 1.16-3.661.146-.263 3.044-5.468-1.555-8.616.993-2.8-1.306-2.098 1.226-2.426-2.19-1.396-1.226-6.219 2.27-2.193.795-5.277-2.101-4.634 1.175-1.71-.205-1.009-1.379-1.593-.278-6.374.358-.716.679-1.359.409-2.624 1.773-2.405.482-1.644.358-3.947.81-3.698 1.088-2.149.307-1.264-.088-1.711z"/><path fill="#FF6B00" stroke="#000" d="M191.89 25.462c-2.973.55-9.116 2.314-9.908 4.96-.991 3.307-2.643 6.283-2.643 8.597 0 2.315-2.642 25.131-1.321 27.446 1.321 2.315 6.606 16.534 3.964 24.14-2.643 7.605-4.294 18.186-2.643 18.517 1.652.331 13.872-2.315 18.826-12.566 4.954-10.25 8.587-24.47 6.936-30.09-1.651-5.622.991-9.59-2.973-13.228-3.963-3.637-7.596-7.936-.99-16.203 6.605-8.266-5.945-11.573-9.248-11.573z"/><path fill="#0047FF" d="M125.505 51.916c-1.652 3.306-5.285 25.792 0 25.792 5.284 0 11.229-2.315 16.844-2.645 5.614-.331 14.532 1.653 19.156 0 4.623-1.654 5.614-12.566 6.275-15.211.66-2.646 4.624-15.211 2.312-17.526-2.312-2.315-5.285-1.984-6.936 0-1.651 1.984-5.284 10.912-10.899 11.574-5.615.661-9.248 3.968-12.22 0-2.973-3.968-5.285-5.291-7.927-4.63-2.642.662-3.633-.992-6.605 2.646zM161.505 81.346c-.771-.551-3.237-1.72-6.936-1.984-4.624-.331-24.11 0-27.413 1.984-3.303 1.983-4.954 10.25-4.624 15.872.33 5.621 4.294 13.557 10.899 17.525 6.606 3.969 18.165 8.929 23.119 8.929 4.955 0 12.551.33 11.23-3.307-1.321-3.638-4.954-9.259-6.275-12.235-1.321-2.976-4.955-11.904-4.955-16.203 0-4.299 4.955-6.944 4.955-10.582z"/><path stroke="#000" d="M125.505 51.916c-1.652 3.306-5.285 25.792 0 25.792 5.284 0 11.229-2.315 16.844-2.645 5.614-.331 14.532 1.653 19.156 0 4.623-1.654 5.614-12.566 6.275-15.211.66-2.646 4.624-15.211 2.312-17.526-2.312-2.315-5.285-1.984-6.936 0-1.651 1.984-5.284 10.912-10.899 11.574-5.615.661-9.248 3.968-12.22 0-2.973-3.968-5.285-5.291-7.927-4.63-2.642.662-3.633-.992-6.605 2.646zM161.505 81.346c-.771-.551-3.237-1.72-6.936-1.984-4.624-.331-24.11 0-27.413 1.984-3.303 1.983-4.954 10.25-4.624 15.872.33 5.621 4.294 13.557 10.899 17.525 6.606 3.969 18.165 8.929 23.119 8.929 4.955 0 12.551.33 11.23-3.307-1.321-3.638-4.954-9.259-6.275-12.235-1.321-2.976-4.955-11.904-4.955-16.203 0-4.299 4.955-6.944 4.955-10.582z"/><path fill="#09FFFF" d="M93.468 215.599c1.321 0 13.211 12.565 12.881 14.88-.331 2.315-5.285 11.573-5.285 16.864s3.964 15.873 0 22.817c-3.963 6.944-10.569 11.573-11.56 14.88-.99 3.307-1.65 14.55-5.944 13.227-4.294-1.323-4.624-3.638-9.248-4.299-4.624-.661-11.56-.661-11.89-2.645-.33-1.984 6.606-16.534 6.936-21.163.33-4.63 6.605-11.574 8.257-14.881 1.651-3.306 8.917-13.557 7.926-17.195-.99-3.637 5.945-21.824 7.927-22.485zM63.413 301.574c1.981-.662 6.275-.662 8.257 0 1.981.661 6.275 2.314 5.945 4.298-.33 1.984.66 5.291-2.312 6.283-2.973.992-3.964 0-4.624-1.653-.66-1.654-3.303-3.638-4.624-4.63-1.321-.992-2.642-3.637-2.642-4.298z"/><path stroke="#000" d="M93.468 215.599c1.321 0 13.211 12.565 12.881 14.88-.331 2.315-5.285 11.573-5.285 16.864s3.964 15.873 0 22.817c-3.963 6.944-10.569 11.573-11.56 14.88-.99 3.307-1.65 14.55-5.944 13.227-4.294-1.323-4.624-3.638-9.248-4.299-4.624-.661-11.56-.661-11.89-2.645-.33-1.984 6.606-16.534 6.936-21.163.33-4.63 6.605-11.574 8.257-14.881 1.651-3.306 8.917-13.557 7.926-17.195-.99-3.637 5.945-21.824 7.927-22.485zM63.413 301.574c1.981-.662 6.275-.662 8.257 0 1.981.661 6.275 2.314 5.945 4.298-.33 1.984.66 5.291-2.312 6.283-2.973.992-3.964 0-4.624-1.653-.66-1.654-3.303-3.638-4.624-4.63-1.321-.992-2.642-3.637-2.642-4.298z"/><path fill="#FF00F5" stroke="#000" d="M89.835 286.032c-.33 1.984-1.651 10.581-4.294 11.904-2.642 1.323-4.293 9.259-5.945 10.251-1.651.992-1.981 13.558.66 14.55 2.643.992 1.983 5.952 5.285 6.944 3.303.992 7.266 3.968 9.248 3.306 1.982-.661 4.624 4.299 14.862 3.969 10.239-.331 12.551.992 14.863 0 2.312-.992 6.275-5.953 7.596-7.937 1.321-1.984 6.936-21.163 6.936-25.131s-.661-48.278.66-51.254c1.322-2.976 2.973-10.582 3.633-13.558.661-2.976-.33-10.581 2.643-12.565 2.972-1.984 5.284-9.92 4.954-19.51-.33-9.589-3.633-16.534-4.954-20.171-1.321-3.637-2.973-6.944 1.981-6.944s4.954-2.645 5.945-5.291c.991-2.645.331-17.856.661-20.502.33-2.645 1.321-3.637-.661-6.282-1.981-2.646-3.302-8.267-8.587-5.622-5.284 2.646-2.642 8.928-6.605 7.936-3.964-.992-13.211-8.928-15.193-11.573-1.982-2.646-1.321-6.614-3.303-8.928-1.981-2.315-6.275-4.63-6.936-7.275-.66-2.645-4.293-1.653-4.623-4.299-.331-2.645-1.322-7.275-3.633-10.581-2.312-3.307-1.322-3.968-3.964-5.622-2.642-1.653-4.293-1.984-5.284-.661-.991 1.323 1.32 6.944.66 8.597-.66 1.654-1.981 12.235-.66 14.219 1.32 1.984 1.651 4.299 7.266 4.96 5.615.662 4.954 28.769 4.293 32.737-.66 3.968-3.963 11.904-5.284 12.896-1.321.992 1.321 13.888-.661 15.542-1.981 1.653-.99 4.96-2.972 9.259-1.982 4.298-1.651 2.976-1.651 5.29 0 2.315-.66 4.299-2.643 6.283-1.981 1.984-.66 4.63-.66 4.63 4.293 3.747 12.881 11.838 12.881 14.219 0 2.976-5.615 13.888-5.285 17.525.33 3.638 3.303 17.195.661 21.494-2.642 4.299-12.55 16.203-11.89 17.195z"/><path fill="#2DFF1B" d="M89.174 110.114c.991-1.653 1.982-4.96 2.312-6.613.33-1.654.66-2.646 1.982-2.315 1.321.331 1.981.331 1.981 1.323 0 .793.441 3.417.661 4.629l.33 1.984c-.77 3.968-2.18 12.169-1.651 13.227.66 1.323 2.642 5.291 4.624 5.952 1.981.661 4.293.992 4.954 1.984.661.992 9.908 28.438-2.642 44.31v14.55c-.661.661-1.982 2.182-1.982 2.976 0 .992-1.651 9.92-3.303 10.581 0 2.646-.66 6.614-3.633 8.929v3.968c-1.32 2.645-4.029 8.134-4.293 8.928-.33.992-3.633 11.573-3.303 12.896.264 1.058.11 1.984 0 2.315l-2.642 6.283-5.615 9.589-5.284 7.606-1.652 3.637-.99 2.315-.661 4.298-2.973 7.937-2.311 5.952-.991 3.637c-1.211.551-4.558 1.587-8.257 1.323-4.624-.331-2.973-2.976-5.615-4.299-2.642-1.323-8.587-3.968-9.908-5.291-1.321-1.322-11.23-2.976-9.578-4.299 1.651-1.322 18.495-27.115 21.138-33.728 2.642-6.614 11.229-22.155 12.22-25.131.99-2.976 4.293-18.518 6.936-21.163 2.642-2.646 2.311-11.905 3.963-15.542 1.651-3.637 3.963-12.235 4.624-15.542.66-3.306 3.633-15.872 4.293-18.517.66-2.646 4.294-23.147 5.285-24.801.99-1.653.66-12.896 1.32-13.227.53-.264.661-.551.661-.661zM110.642 52.246h13.872l.33.331-.991 3.307-.66 6.282-.661 5.953v4.298l.33 2.646c-.77 3.306-2.245 10.647-1.981 13.557.33 3.638 0 7.936-.661 8.928-.66.992-4.954 5.291-7.266 5.953-2.312.661-6.275.661-7.926 0-1.652-.662-3.634-1.654-3.634-3.307 0-1.654-.66-6.283 0-6.944.661-.662 4.624-5.622 5.615-8.267.991-2.645 1.321-7.275-.33-7.936-1.651-.662.991-9.59 1.651-11.904.661-2.315 2.642-11.574 2.312-12.897z"/><path stroke="#000" d="M117.248 52.246h7.266m-22.789 122.349c12.55-15.872 3.303-43.318 2.642-44.31-.661-.992-2.972-1.323-4.954-1.984-1.982-.661-3.963-4.629-4.624-5.952-.528-1.058.88-9.259 1.651-13.227l-.33-1.984c-.22-1.212-.66-3.836-.66-4.629 0-.992-.661-.992-1.982-1.323-1.321-.331-1.651.661-1.982 2.315-.33 1.653-1.32 4.96-2.312 6.613 0 .11-.132.397-.66.661-.66.331-.33 11.574-1.321 13.227-.991 1.654-4.624 22.155-5.285 24.801-.66 2.645-3.633 15.211-4.293 18.517-.66 3.307-2.973 11.905-4.624 15.542-1.651 3.637-1.321 12.896-3.963 15.542-2.643 2.645-5.945 18.187-6.936 21.163-.991 2.976-9.578 18.517-12.22 25.131-2.643 6.613-19.487 32.406-21.138 33.728-1.651 1.323 8.257 2.977 9.578 4.299 1.321 1.323 7.266 3.968 9.908 5.291 2.642 1.323.991 3.968 5.615 4.299 3.699.264 7.046-.772 8.257-1.323l.99-3.637 2.312-5.952 2.973-7.937.66-4.298.991-2.315 1.652-3.637 5.284-7.606 5.615-9.589 2.642-6.283c.11-.331.264-1.257 0-2.315-.33-1.323 2.972-11.904 3.303-12.896.264-.794 2.972-6.283 4.293-8.928l8.918-41.004zm0 0v14.55-14.55zm0 0v14.55-14.55zm0 14.55c-.661.661-1.982 2.182-1.982 2.976 0 .992-1.651 9.92-3.303 10.581 0 2.646-.66 6.614-3.633 8.929l8.918-22.486zm-8.918 22.486v3.968-3.968zm0 0v3.968-3.968zm17.835-159.385h6.606-6.606zm0 0c.33 1.323-1.651 10.582-2.312 12.896-.66 2.315-3.302 11.243-1.651 11.905 1.651.661 1.321 5.29.33 7.936-.991 2.645-4.954 7.605-5.614 8.267-.661.661 0 5.29 0 6.944 0 1.653 1.981 2.645 3.633 3.307 1.651.661 5.614.661 7.926 0 2.312-.662 6.606-4.96 7.266-5.953.661-.992.991-5.29.661-8.928-.264-2.91 1.211-10.25 1.981-13.557l-.33-2.646V68.12l.661-5.953.66-6.282.991-3.307-.33-.33h-13.872zm0 0h6.606-6.606zm6.606 0h7.266-7.266z"/><path fill="#000" d="M192.543 75h-2.18V60.55l-4.371 1.606v-1.968l6.211-2.333h.34V75zM148.598 106h-11.18v-1.559l5.906-6.562c.875-.992 1.477-1.797 1.805-2.414.336-.625.504-1.27.504-1.934 0-.89-.27-1.62-.809-2.191-.539-.57-1.258-.856-2.156-.856-1.078 0-1.918.309-2.52.926-.593.61-.89 1.461-.89 2.555h-2.168c0-1.57.504-2.84 1.512-3.809 1.015-.969 2.371-1.453 4.066-1.453 1.586 0 2.84.418 3.762 1.254.922.828 1.382 1.934 1.382 3.316 0 1.68-1.07 3.68-3.21 6l-4.571 4.957h8.567V106zM122.57 205.414h1.629c1.024-.016 1.828-.285 2.414-.809.586-.523.879-1.23.879-2.121 0-2-.996-3-2.988-3-.938 0-1.688.27-2.25.809-.555.531-.832 1.238-.832 2.121h-2.168c0-1.352.492-2.473 1.476-3.363.993-.899 2.25-1.348 3.774-1.348 1.609 0 2.871.426 3.785 1.277.914.852 1.371 2.036 1.371 3.551 0 .742-.242 1.461-.726 2.157-.477.695-1.129 1.214-1.957 1.558.937.297 1.66.789 2.168 1.477.515.687.773 1.527.773 2.519 0 1.531-.5 2.746-1.5 3.645-1 .898-2.301 1.347-3.902 1.347-1.602 0-2.907-.433-3.914-1.3-1-.868-1.5-2.012-1.5-3.434h2.179c0 .898.293 1.617.879 2.156.586.539 1.371.809 2.356.809 1.046 0 1.847-.274 2.402-.82.555-.547.832-1.333.832-2.356 0-.992-.305-1.754-.914-2.285-.609-.531-1.488-.805-2.637-.82h-1.629v-1.77zM77.57 226.27h2.368v1.769H77.57V232h-2.18v-3.961h-7.769v-1.277l7.64-11.824h2.31v11.332zm-7.488 0h5.309v-8.368l-.258.469-5.051 7.899zM78.414 270.445l.867-8.507h8.742v2.003h-6.902l-.515 4.653c.835-.492 1.785-.739 2.847-.739 1.555 0 2.79.516 3.703 1.547.914 1.024 1.371 2.41 1.371 4.16 0 1.758-.476 3.145-1.43 4.161-.945 1.007-2.269 1.511-3.972 1.511-1.508 0-2.738-.418-3.691-1.254-.953-.835-1.496-1.992-1.63-3.468h2.052c.132.976.48 1.715 1.042 2.215.563.492 1.305.738 2.227.738 1.008 0 1.797-.344 2.367-1.031.578-.688.867-1.637.867-2.848 0-1.141-.312-2.055-.937-2.742-.617-.696-1.441-1.043-2.473-1.043-.945 0-1.687.207-2.226.621l-.575.469-1.734-.446zM77.926 386.926v1.84h-.399c-1.687.031-3.03.531-4.03 1.5-1 .968-1.579 2.332-1.735 4.089.898-1.031 2.125-1.546 3.68-1.546 1.484 0 2.667.523 3.55 1.57.89 1.047 1.336 2.398 1.336 4.055 0 1.757-.48 3.164-1.441 4.218-.953 1.055-2.235 1.582-3.844 1.582-1.633 0-2.957-.625-3.973-1.875-1.015-1.257-1.523-2.875-1.523-4.851v-.832c0-3.141.668-5.539 2.004-7.196 1.343-1.664 3.34-2.515 5.988-2.554h.387zm-2.848 7.687c-.742 0-1.426.223-2.05.668-.626.446-1.06 1.004-1.301 1.676v.797c0 1.406.316 2.539.949 3.398.633.86 1.422 1.289 2.367 1.289.976 0 1.742-.359 2.297-1.078.562-.718.844-1.66.844-2.824 0-1.172-.286-2.117-.856-2.836-.562-.726-1.312-1.09-2.25-1.09z"/></svg>