<svg width="216" height="580" viewBox="0 0 216 580" fill="none" xmlns="http://www.w3.org/2000/svg">
<path d="M212.609 82.2132L210.332 86.1965L208.485 90.2598L206.441 92.4528L203.353 98.0002L199.425 102.568L199.309 102.071L198.513 101.618L195.768 102.751L194.461 102.911L193.834 103.445L193.344 104.556L192.833 106.58L189.964 106.975L188.155 108.81L186.154 110.228L184.906 110.607L184.008 111.193L180.89 111.412L179.387 112.384L179.321 111.448L178.964 111.054L176.555 109.965L175.642 109.314L175.679 109.021L178.065 106.595L179.474 103.642L179.861 101.026L180.088 95.6028L180.971 92.2332L181.212 89.982L180.869 87.6071L180.321 86.1892L178.686 82.9803L177.576 81.7893L177.051 80.8826L176.109 81.2919L175.533 80.9705L175.27 80.3343L175.306 79.5599L176.036 77.9449L176.292 76.6658L176.847 69.0061L176.635 65.5489L175.182 62.8154L175.138 62.1138L177.204 60.0453L178.504 57.5604L179.095 56.8733L180.445 56.4641L180.81 56.8879L180.854 52.9997L181.198 49.7253L183.074 44.7115L183.541 42.8916L183.548 41.883L182.942 39.2737L182.716 37.2785L182.803 34.0114L183.416 31.6653L184.497 29.1657L184.38 28.7783L183.657 28.3544L182.073 28.1424L181.321 28.2375L179.672 29.1218L178.73 29.363L177.796 29.1364L176.744 28.1498L177.219 26.9584L177.81 26.1837L181.46 24.4661L185.307 22.1565L186.607 20.9067L188.476 17.9174L189.519 16.9673L190.301 16.6603L193.461 16.9308L195.374 16.6018L197.9 15.5494L200.236 13.6418L200.973 12.6332L201.368 11.4491L201.951 7.62664L203.031 5.90176L204.944 4.50577L211.872 0.661346L212.522 1.16566L212.697 2.24005L212.244 4.15496L210.93 6.33298L208.426 9.19072L207.353 11.9827L206.966 14.6942L207.572 20.7825L207.382 21.8057L205.937 24.2761L206.871 25.4016L208.725 26.9877L209.543 28.1278L209.959 28.8514L210.806 31.8992L210.967 33.6606L210.718 34.8519L210.244 36.0725L209.12 37.3003L208.718 38.1043L208.959 39.7269L210.003 40.0996L211.726 40.2824L212.682 40.7282L215.339 44.5726L215.04 48.4975L213.026 50.2808L212.792 50.902L213.076 51.7207L214.5 53.3359L214.646 53.9791L214.464 54.3445L213.792 54.7465L212.376 54.9146L209.871 54.2495L209.339 54.6807L209.04 55.4627L209.675 58.0793L209.302 62.7862L209.959 64.9277L211.04 74.8749L213.23 77.9151L213.66 78.9607L213.668 79.7867L213.091 81.3799L212.609 82.2132Z" fill="#CCCCCC" stroke="white" stroke-width="0.5"/>
<path d="M153.559 153.649L152.727 152.911L152.764 152.158L151.873 151.004L151.143 148.855L151.296 145.888L150.902 142.701L148.858 139.236L146.821 137.716L145.756 137.453L143.339 137.409L137.186 138.542L135.718 138.535L134.718 138.271L132.74 137.292L130.813 135.874L128.564 133.543L126.827 132.593L125.608 132.775L124.936 133.112L124.235 133.908L123.571 132.782L123.257 132.454L121.79 131.876L121.374 131.584L120.425 129.808L120.074 129.479L119.622 129.275L118.892 129.56L117.979 131.05L116.614 131.708L116.234 132.037L116.023 133.155L115.746 133.572L114.935 133.821L114.103 135.348L113.577 135.801L112.811 136.086H112.46L110.395 135.428H108.438L107.912 135.26L107.46 134.727L107.146 133.981L106.657 133.776L106.445 133.938L105.883 133.981L105.503 132.995L105.117 132.702L104.35 132.454L104.102 131.665L104.489 130.386L104.555 129.399L104.241 129.026L103.547 128.734L103.233 128.032L102.985 127.908L102.394 127.951L102.043 127.615L101.832 126.834V125.591L101.342 125.057L101.101 124.969L100.744 124.64L100.641 124.063L100.926 123.646L101.416 123.486H102.357L103.335 123.895L103.926 123.983L104.701 123.814L104.802 123.274L104.526 122.865L102.634 122.367L102.218 121.79L102.146 121.169L102.284 120.299L102.773 119.43L103.124 119.057L103.825 118.772H104.452L105.218 118.976L106.62 119.678H107.182L107.562 119.349L107.949 118.728L108.854 116.579L109.278 115.994L111.482 114.759L111.825 114.423L112.037 113.97L112 113.064L111.584 112.479L110.986 112.025L110.782 111.529L110.847 110.037L111.022 109.541L111.336 109.212L111.65 109.168L112 109.504L112.636 110.578L112.876 110.703L113.329 110.535L114.132 109.629L114.344 109.168L114.453 108.59V108.262L114.168 107.516L115.359 106.647L115.636 106.274L115.709 105.981L115.147 104.49L115.081 103.869L115.147 103.584L117.001 100.638L117.074 99.7686L117.315 98.9796L117.278 98.3216L117.038 97.6199L116.373 96.5822L115.461 94.3456L115.431 93.4322L115.921 91.5243L115.811 90.9469L115.008 90.3623L112.665 89.6606L111.373 88.5423L110.256 87.9576V87.4166L110.672 85.8016L110.708 85.1436L110.431 84.764L109.766 84.391L109.278 83.8573L109 83.1119L108.89 82.1986L108.657 82.1398L109.029 79.4137L108.526 77.9303L107.65 78.054L107.409 77.6962L107.124 77.4839L106.708 77.4475L106.569 77.5719V77.9005L106.321 77.8205L106.007 77.8569V77.5282L106.569 76.0369L106.635 74.9556L107.124 72.9233L107.16 71.7176L107.27 71.469L107.234 70.9723L107.299 70.928V70.5113L107.445 70.0147L107.409 69.8096L107.723 69.0207V68.6477L107.935 68.5604V67.442L108.073 67.3177L108.175 66.6967L108.665 65.7828L108.628 65.1981L108.526 64.9935L108.628 64.9058V64.3649L108.803 64.036L108.774 63.6194L108.978 63.1662L108.942 63.042L109.117 62.9543L109.051 62.5377L109.292 62.0407L109.402 61.4194L109.577 61.0833L109.643 60.462L109.993 59.8407L109.854 59.7604V59.4241L110.205 59.1318L110.132 59.0514L110.241 58.7152L110.168 58.5106L110.416 58.1378L110.344 57.7212H110.445L110.416 57.268L110.584 57.1365L110.62 56.1863L110.759 55.894L110.832 54.5199L110.971 54.2715V53.8183L110.869 53.6867V52.2688L116.483 52.1884L120.447 51.8522L124.907 52.627L125.345 52.4369L126.067 51.6548L127.52 51.1798L132.177 51.0263L137.025 50.3466L139.514 50.9386L141.631 54.9657L142.814 56.3252L144.712 57.4507L145.442 57.6627L148.639 56.2375L152.092 55.9597L153.005 55.4774L155.151 53.409L155.771 52.5612L156.801 51.8011L157.348 51.7426L159.567 52.2761L161.692 51.4722L161.991 51.114L162.159 49.221L162.443 48.5925L164.838 47.5766L165.466 46.0783L165.722 42.8039L166.51 39.1714L167.32 37.7608L167.94 36.0944L167.838 34.2746L167.385 32.2281L167.444 31.0587L168.517 28.6102L169.247 27.9963L170.43 26.4395L171.634 23.7791L171.933 23.4648L172.817 24.1884L175.795 28.4421L176.284 28.5956L176.744 28.1498L177.796 29.1364L178.73 29.363L179.672 29.1218L181.321 28.2375L182.073 28.1424L183.657 28.3544L184.38 28.7783L184.497 29.1657L183.416 31.6653L182.803 34.0114L182.716 37.2785L182.942 39.2738L183.548 41.883L183.541 42.8916L183.074 44.7115L181.198 49.7254L180.854 52.9997L180.811 56.888L180.445 56.4641L179.095 56.8734L178.504 57.5604L177.204 60.0454L175.138 62.1138L175.182 62.8155L176.635 65.5489L176.847 69.0061L176.292 76.6658L176.036 77.9449L175.306 79.5599L175.27 80.3343L175.533 80.9705L176.109 81.2919L177.051 80.8826L177.576 81.7893L178.686 82.9803L180.321 86.1892L180.869 87.6071L181.212 89.982L180.971 92.2332L180.088 95.6028L179.861 101.026L179.474 103.642L178.065 106.595L175.679 109.021L175.642 109.314L176.555 109.965L178.964 111.054L179.321 111.448L179.387 112.384L175.839 113.933L175.021 114.868L175.255 116.966L173.832 117.529L173.89 118.436L173.583 118.794L172.474 119.108L170.656 120.489L170.488 122.017L170.882 122.477L170.7 124.692L170.985 125.379L171.919 125.89L172.167 126.819L171.569 128.207L171.481 129.603L172.773 132.286L172.649 132.593L171.393 132.578L171.167 133.981L170.59 133.967L169.861 133.484L169.59 133.63L169.67 134.515L170.517 135.889L170.24 136.357L168.969 136.627L168.298 137.57L168.897 138.023L169.707 138.001L170.51 139.836L171.452 140.216L171.693 140.618L171.54 141.378L169.985 144.177L169.875 144.93L170.072 145.602L171.116 146.114L171.371 146.611L171.057 147.342L170.444 147.364L170.021 147.751L170.328 149.717L168.853 150.178L169.218 153.539L168.999 154.088L168.057 154.365L167.926 154.607L169.131 156.638L168.101 156.537L165.181 155.696L161.473 153.963L159.896 153.481L157.034 153.357L155.151 153.905L153.559 153.649Z" fill="#CCCCCC" stroke="white" stroke-width="0.5"/>
<path d="M80.8071 153.656L80.7345 153.532L80.8804 153.196L81.1215 153.079L81.2233 152.743V152.662H80.8804L81.0846 152.377V152.166L81.2603 151.836L81.545 151.713L81.508 151.588L81.574 151.551L82.0998 148.993L82.1725 147.795L82.5523 146.64L82.7637 145.522L82.4862 144.784H80.9458V144.571L82.3112 144.535L82.4136 144.447L82.4862 144.118L82.625 144.243L82.662 144.535H83.0774L83.1144 144.447H82.8733L82.7637 144.331V144.162L82.9024 144.118L82.9757 143.833V143.665L82.837 143.622V143.505L82.9757 143.461L83.012 143.585H83.1144L83.2895 143.461L83.2162 143.337L83.2531 142.883L83.6396 142.218L83.5669 142.013L83.3621 142.094L83.3258 141.517L83.4645 141.436V141.107L83.6032 140.859L83.5306 140.691L83.7783 140.406V140.113L83.6396 139.989L83.7056 139.5L83.9903 139.287L84.0267 138.71L84.3701 138.257L84.0267 138.213L83.9903 138.008H84.1654L84.3701 137.555L84.6548 136.313L84.7935 136.108L84.8299 135.575L85.0049 135.239L84.9686 134.705L84.7566 134.661L84.6548 134.537V134.127L84.8299 133.587L85.1073 133.301L85.3557 133.338L85.5598 132.928L85.5235 132.76L85.2824 132.724V132.475L85.1073 132.351L85.5235 131.562L85.4211 131.357L85.4574 131.028L85.6694 130.78L85.9469 129.749L86.0856 129.83L86.1583 129.661L86.0856 129.376L86.363 128.836L86.297 128.507L86.0486 128.259V128.01L86.297 127.761L86.3993 127.184L86.2606 127.103V126.892L86.472 126.278L86.6768 125.986L86.5744 125.817L86.6768 125.532L86.6477 124.83L86.7864 124.538V124.166L86.6768 124.085L86.8228 123.668L86.9615 122.346L87.1365 122.302L87.3116 121.893L87.3776 120.694L87.589 119.78L87.8301 119.371L87.6253 119.247L87.801 118.333L87.764 117.675L88.0785 117.383L88.1148 117.215L88.1511 115.892L88.3559 114.525L88.3189 113.29L88.4649 112.997V112.873L88.3189 112.749V112.544L88.3922 112.457L88.3559 112.171L88.5673 112.003L88.5309 111.755L88.3559 111.631V111.302L88.5673 110.681V110.352L88.9544 109.891V109.687L89.2318 109.394L89.7206 109.438L90.0713 108.985L90.3118 108.444L90.4578 107.823L90.3488 107.45L90.5965 107.158L90.7352 105.63L91.0126 104.965L91.261 102.071L91.3997 101.53V100.244L91.4658 99.6661L91.6118 99.3374L91.7795 97.2251L91.6408 96.5604H91.8159L91.8522 96.4797L91.9546 95.4857L91.9255 94.9818L91.7505 94.6524H91.8522L91.9255 94.5281L92.0279 94.6524L92.1296 94.6088V94.4845L92.0279 94.4481L92.1296 94.1114L91.9909 93.9878L91.8892 93.6148V92.2921L92.0642 92.0871L91.9255 91.8384L92.1296 91.5904L92.4434 91.6704L93.2176 90.9251L93.5974 90.8371L94.0571 90.8814L94.6846 90.5521L94.8234 90.3041L94.9257 90.2161L95.0354 90.2598L95.1371 90.0918H95.4515L95.9113 90.3041L96.225 90.8814H96.5388L96.7145 91.0494L97.342 91.2981L97.7218 91.3345V91.4588L97.8969 91.6704L98.8461 91.7147L99.7511 91.4588V91.5904L99.3349 91.7511L99.2616 91.6704L98.9842 91.8754H98.8461L97.9696 91.7948L97.4444 91.6268L96.8162 91.1738L96.5388 91.2538L96.7145 91.2981L96.7799 91.4588L96.9186 91.5024L96.8895 91.6704L97.6195 92.0434L97.7218 92.2478L97.8678 92.2921L98.0719 92.5401L98.1453 92.8324L98.284 92.7451V92.3357H98.4227L98.4953 92.7087H98.6704L98.7364 92.4601L98.5614 92.2921V92.1234L98.5977 92.0434L98.8091 92.0871L99.0865 92.4964L99.1962 93.2861L99.4373 93.3661L99.576 93.7027H100.028L100.204 93.5784L100.591 93.5341L100.488 93.2418L100.627 93.2054L101.182 93.5784L101.291 94.2358L101.992 94.0314L102.021 93.9071L101.919 93.7391L101.569 93.7027L101.503 93.2861L101.218 93.3297L101.014 93.2054L101.569 93.0374L102.686 92.2921L102.934 92.2478L103.072 91.9627L103.284 91.9191V91.7511L103.525 91.6268V91.4218L103.7 91.2538L103.912 90.8008L104.401 90.3405L105.139 89.2658L106.394 86.3208L106.606 86.2401L106.533 85.9478L106.847 84.9102L106.985 84.8295L106.949 84.6615L107.234 83.8718L107.409 83.7475L107.335 83.5868L107.686 82.3812L107.65 82.2132L107.964 80.5975L108 78.7702L107.65 78.054L108.526 77.9303L109.029 79.4137L108.657 82.1398L108.89 82.1986L109 83.112L109.278 83.8573L109.766 84.391L110.431 84.764L110.708 85.1436L110.672 85.8017L110.256 87.4166V87.9576L111.373 88.5423L112.665 89.6606L115.008 90.3623L115.811 90.9469L115.921 91.5243L115.431 93.4323L115.461 94.3456L116.373 96.5822L117.038 97.6199L117.278 98.3216L117.315 98.9796L117.074 99.7686L117.001 100.638L115.147 103.584L115.081 103.869L115.147 104.49L115.709 105.981L115.636 106.274L115.359 106.647L114.168 107.516L114.453 108.262V108.59L114.344 109.168L114.132 109.629L113.329 110.535L112.876 110.703L112.636 110.578L112 109.504L111.65 109.168L111.336 109.212L111.022 109.541L110.847 110.037L110.782 111.529L110.986 112.025L111.584 112.479L112 113.064L112.037 113.97L111.825 114.423L111.482 114.759L109.278 115.994L108.854 116.579L107.949 118.728L107.562 119.349L107.182 119.678H106.62L105.218 118.976L104.452 118.772H103.825L103.124 119.057L102.773 119.429L102.284 120.299L102.146 121.169L102.218 121.79L102.634 122.367L104.526 122.865L104.802 123.274L104.701 123.814L103.926 123.983L103.335 123.895L102.357 123.486H101.416L100.926 123.646L100.641 124.063L100.744 124.64L101.101 124.969L101.342 125.057L101.832 125.591V126.834L102.043 127.615L102.394 127.951L102.985 127.908L103.233 128.032L103.547 128.734L104.241 129.026L104.555 129.399L104.489 130.386L104.102 131.665L104.35 132.454L105.117 132.702L105.503 132.995L105.883 133.981L106.445 133.938L106.657 133.776L107.146 133.981L107.46 134.727L107.912 135.26L108.438 135.428H110.395L112.46 136.086H112.811L113.577 135.801L114.103 135.348L114.935 133.821L115.746 133.572L116.022 133.155L116.234 132.037L116.614 131.708L117.979 131.05L118.892 129.56L119.622 129.275L120.074 129.479L120.425 129.808L121.374 131.584L121.79 131.876L123.257 132.454L123.571 132.782L124.235 133.908L122.629 135.728L122.191 136.635L120.68 138.096L118.206 139.902L115.067 141.502L110.007 143.417L109.051 144.14L107.883 146.333L107.328 148.401L106.737 152.209L105.642 155.25L105.387 157.099L104.81 157.062L101.306 158.173H100.4L99.8389 158.049L98.9624 156.894L98.0937 156.398L97.634 155.491L97.0065 154.789L96.5903 154.497L96.0645 154.336H93.057L91.1368 153.883L89.2173 153.759L87.9906 153.92L86.4865 154.497L85.5816 154.541L85.0195 154.417L83.5887 153.795L82.4354 153.591L80.8071 153.656Z" fill="#CCCCCC" stroke="white" stroke-width="0.5"/>
<path d="M56.2356 232.892L57.389 230.004L57.5277 229.383L57.9146 228.564V228.404L58.0533 228.236L58.2285 227.337L58.4402 226.927L58.4694 226.43L58.6154 226.394L58.6446 226.226L58.7541 226.189V225.896L58.8198 225.773H58.9293V225.568H58.995L59.2797 225.078L59.4549 224.998L59.4841 224.749L60.5353 223.192L61.4405 220.971L62.3165 218.676L63.8568 213.355L64.8861 213.523L65.4774 213.976L66.3166 214.137L68.5579 214.1L69.6385 214.714L70.5144 214.839L72.471 214.714L73.5219 214.422L74.3905 213.603L76.0697 211.55L76.9092 211.06H77.5367L78.2376 211.345L78.8658 212.412L79.3546 212.617L80.0554 212.332L80.1941 212.083L80.5812 211.842L81.4208 211.63L82.6395 211.754L83.129 211.265L83.1653 210.607L82.9902 210.117L82.4644 209.576L81.07 208.962L80.4062 204.935L80.2305 204.446L79.7417 203.912L78.515 203.086L78.0989 202.509L77.9971 201.939L78.0989 201.113L78.2746 200.623L78.3109 199.344L78.4859 198.197L79.5666 196.881L80.4062 195.361L80.7926 194.41L80.8223 193.139L80.4716 192.152L80.7199 191.37L80.7926 189.433L80.5812 188.944L79.4933 188.366L79.1141 187.708L78.4496 187.38L77.5077 186.554L76.5221 186.181L73.8357 185.852L72.9089 185.823L73.1203 185.26V185.055L73.0113 184.931L73.0476 184.719L73.4347 183.82L73.6098 183.652L73.5734 183.323L73.8872 182.746L73.9235 182.256L74.3033 181.678L74.376 181.101L74.551 180.691L74.4784 180.276L74.7631 179.99V179.332L75.0042 178.258L75.2156 177.929L75.5663 176.979L75.5293 176.489L75.668 176.284L75.8437 175.707L75.8068 175.583L76.2011 174.552L76.2302 173.938H76.1205V173.814L76.3689 173.398L76.4422 172.455L76.8214 171.709L76.8947 171.3L77.2084 170.598L77.1721 170.101L77.3108 170.189L77.4205 170.145L77.3472 169.443L77.4859 168.705L77.6246 168.581L77.5955 168.289L78.1141 165.943V165.775L77.9383 165.651L77.9093 165.445L78.3618 165.197L78.3988 165.073L78.6392 163.677L78.7779 163.304V162.807L78.9899 162.398L79.5811 159.672V159.182L79.7562 158.276H79.5521V158.188L79.9312 157.823L80.0409 157.574L80.1069 156.997L80.0409 156.499L80.2457 155.673L80.0045 155.513L80.1796 155.14L80.3183 155.052L80.5957 154.314L80.7054 154.271L80.8071 153.656L82.4354 153.591L83.5887 153.795L85.0195 154.417L85.5816 154.541L86.4865 154.497L87.9906 153.92L89.2173 153.759L91.1368 153.883L93.057 154.336H96.0645L96.5903 154.497L97.0065 154.789L97.634 155.491L98.0937 156.398L98.9623 156.894L99.8389 158.049L100.401 158.173H101.306L104.81 157.062L105.387 157.099L105.124 159.014L104.248 159.869L100.978 161.338L100.138 162.398L98.8018 164.912L98.6631 168.91L99.2543 173.156L98.8382 174.253L97.7727 175.013L96.0427 177.52L93.7724 182.672L93.5531 184.405L93.6119 186.122L95.3273 188.695L96.0064 190.12L96.9622 194.345L97.1155 196.245L96.7145 197.795L95.692 199.731L95.546 200.908L95.9403 201.895L97.2542 203.298L98.7001 206.053L99.1156 207.756L98.8236 209.941L97.8163 212.142L97.846 213.136L98.0865 213.932L97.5316 214.386L98.0792 215.847L96.3565 219.531L96.663 222.878L98.5905 225.48L101.466 227.775L102.072 230.143L100.962 233.593L94.6774 234.719L94.5677 234.887L91.3343 234.748L89.385 234.507L88.2535 234.631L87.3261 235.354L86.1946 238.614L84.8589 239.455L80.8441 240.303L78.7852 241.026L76.2156 243.555L75.6608 244.988H75.3761L74.9897 245.273L74.1864 246.171L72.9235 247.933L72.2589 248.634L71.8798 248.919L71.0693 249.124L70.6531 248.839L69.9523 247.852L69.0473 245.024L68.7329 244.329L68.1715 243.511L67.4706 242.897L65.3095 241.669L65.0248 241.625L64.2218 242.524L63.8349 242.817L63.3166 242.897L62.1267 242.729L61.5281 242.853L61.6376 243.263L62.6158 243.672L62.8567 244.454L63.5575 245.112L63.594 245.433L63.2801 245.806L62.9662 245.843L62.1632 245.638L61.915 245.726L61.8785 246.669L61.5281 247.034L60.3747 247.239L60.0608 247.194L59.2943 246.581L58.5278 246.376L57.1262 246.296L56.5349 245.843L56.3597 245.353V244.988L56.6371 244.578L57.2284 244.169L58.1774 243.759L58.5278 243.431L58.7687 242.978L58.6665 242.4L58.2139 241.83L56.9145 241.136L56.6006 240.398V239.82L56.951 239.162L57.4036 238.921L57.7175 238.877L58.9804 239.33L59.5352 239.411L60.1995 239.374L60.5499 239.082L60.5207 237.489L60.8346 236.458L60.5864 235.354L60.6594 235.069L61.6376 234.039L61.7398 233.505L61.4989 233.096L61.039 232.854L59.8199 233.301L58.9439 233.22L58.1774 232.277L57.5496 232.358L57.1992 232.686L56.7101 232.892H56.2356Z" fill="#CCCCCC" stroke="white" stroke-width="0.5"/>
<path d="M63.8568 213.355L64.1342 212.266L64.4116 211.615L64.5211 210.665L64.7986 210.3L64.6233 210.176L64.8716 209.35L65.0759 209.021V208.779L65.2219 208.451L65.3972 208.246L65.4993 207.34L65.9154 207.011V206.638L65.7767 206.521L66.1634 206.149H66.4045L66.7183 205.9L67.1053 205.286L67.3537 204.504L67.5287 204.255L67.5578 203.89L67.4924 203.802L67.7038 203.722L67.5578 203.517L67.6675 203.393L67.5941 203.356L67.6675 203.064L68.1933 201.836L68.2223 201.464L68.3756 201.383L68.4707 201.134L68.295 200.638V200.228L68.5724 200.023L68.7111 200.068L68.9232 199.41L69.2369 198.789L69.0619 198.459L69.0982 198.218H69.2006L69.2733 198.423H69.412L69.7991 197.232L70.0402 195.996L70.3539 195.58L70.4636 195.295L70.4266 195.134L70.529 195.046L70.8797 193.694V193.073L71.3031 192.006L71.2298 191.553L71.6169 191.348L71.5806 191.019L71.3322 190.851L71.4049 189.908L71.5436 189.784L71.7556 189.864L71.821 189.74L72.3177 188.096L72.6606 186.247L72.9089 185.823L73.8357 185.852L76.5221 186.181L77.5077 186.554L78.4496 187.38L79.1141 187.708L79.4933 188.366L80.5812 188.944L80.7926 189.433L80.7199 191.37L80.4716 192.152L80.8223 193.139L80.7926 194.41L80.4062 195.361L79.5666 196.881L78.486 198.197L78.3109 199.344L78.2746 200.623L78.0989 201.113L77.9972 201.939L78.0989 202.509L78.515 203.086L79.7417 203.912L80.2305 204.446L80.4062 204.935L81.07 208.962L82.4645 209.576L82.9903 210.117L83.1653 210.607L83.129 211.265L82.6395 211.754L81.4208 211.63L80.5812 211.842L80.1941 212.083L80.0554 212.332L79.3546 212.617L78.8658 212.412L78.2376 211.345L77.5368 211.06H76.9092L76.0697 211.55L74.3905 213.603L73.5219 214.422L72.471 214.714L70.5144 214.839L69.6385 214.714L68.5579 214.1L66.3166 214.137L65.4774 213.976L64.8861 213.523L63.8568 213.355Z" fill="#CCCCCC" stroke="white" stroke-width="0.5"/>
<path d="M157.502 292.378L157.45 299.898L157.005 302.851L154.932 308.771L150.172 317.33L148.72 320.282L147.369 322.672L146.719 325.625L148.158 328.754L153.771 336.318L154.771 338.467L155.399 341.522L155.531 343.81L154.676 347.559L153.902 350.241L149.084 357.674L148.574 360.656L148.873 363.039L149.902 365.889L149.895 368.9L147.712 370.911L142.981 374.017L139.624 381.443L139.58 384.088L140.215 386.493L139.572 389.439L137.163 390.308L135.287 392.581L134.178 395.621L134.163 401.571L132.39 405.715L129.301 411.358L128.637 414.596L126.768 416.335L123.053 423.512L122.753 425.91L119.906 439.123L119.038 441.726L117.301 444.225L116.804 446.191L121.155 454.385L121.819 456.65L121.418 458.383L118.622 461.482L117.818 463.981L118.249 466.876L115.855 472.196L119.797 489.657L110.059 503.646L107.438 514.069L107.832 525.382L104.124 532.808L103.562 535.527L103.926 537.683L103.562 540.599L101.416 549.538V554.405L101.751 557.446L101.78 560.26L100.131 562.285L97.8823 563.936L95.9694 566.158L94.6192 568.87L93.3926 572.319L93.1442 572.239L92.6191 572.276L92.3047 571.954H92.0279L91.9255 572.356L91.7795 572.4L91.7135 572.795L91.5384 572.999L91.5021 573.197H91.1883L91.1223 573.394L90.8012 573.518L90.6625 573.796L90.5602 574.395L90.2464 574.922H89.969V575.039L89.5819 575.477L89.1294 575.755L89.0197 576.156L88.5309 576.639V577.238L88.2172 577.435L87.764 578.079L87.5163 578.276V578.642L86.9615 579.277L86.4357 579.519L83.2604 575.835L81.6031 572.699L81.0046 570.288L80.5006 566.085L81.6837 562.153L82.2749 558.213L81.7055 555.502L79.4497 551.562L79.5375 544.612L66.6674 508.44L66.923 506.255L62.8494 494.977L52.0088 464.288L49.4466 454.641L40.6646 448.888L40.3434 444.423L42.9495 437.07L37.4891 430.66L37.8542 422.716L34.2114 407.542L23.13 384.234L15.9468 363.178L5.56615 328.681L11.2309 324.427L16.8301 319.589L18.2171 317.038L18.1879 313.084L17.874 308.852L18.9763 305.168L23.1665 299.774L35.7956 287.525L39.4602 286.648L40.577 284.667L40.5624 281.838L38.8469 279.302L33.3792 274.186L36.416 269.238L36.9416 268.909L37.1898 268.543L37.1533 268.463L36.9416 268.42L36.9781 268.054L36.8686 268.01V267.893L37.292 267.396V267.565L36.9781 267.93L37.3285 268.01L37.3942 268.135L37.5037 268.098L39.4236 264.904L39.6719 264.042L40.1244 263.72L40.8253 262.813L41.1026 262.243L41.0662 262.039L41.453 261.549L41.6574 261.016L41.8327 260.892L41.9056 261.06H42.0444L44.176 257.251L44.5628 256.718L45.5411 254.752L46.0958 254.058L46.3805 253.239L47.7748 250.82L49.0377 248.116L49.6655 247.056L50.2934 245.536L50.5051 245.17L50.6073 245.126L50.5707 245.002L50.9212 244.351L51.2716 243.365L51.7241 242.546L52.2497 241.318L51.8702 240.909L51.6585 240.207L51.6949 239.637L52.038 238.775H52.1475V239.06L52.0088 239.148L51.7972 239.637V240.332L52.2497 241.114H52.5344L52.6002 240.909L52.2497 240.705V240.58L52.3885 240.5L52.3593 240.09L52.4614 239.966L52.498 239.637V239.513L52.3593 239.433V239.265H52.6731L52.8119 239.433H53.6149L53.6879 239.228L53.9653 238.943L54.031 238.775L53.8558 238.695L53.8266 238.49L53.8558 237.423L53.9653 237.342L54.0018 237.503H54.104V237.423L54.3814 237.262L55.4253 234.631L56.2356 232.892H56.7101L57.1992 232.686L57.5496 232.358L58.1774 232.277L58.9439 233.22L59.8199 233.301L61.039 232.854L61.4989 233.096L61.7398 233.505L61.6376 234.039L60.6594 235.069L60.5864 235.354L60.8346 236.458L60.5207 237.489L60.5499 239.082L60.1995 239.374L59.5352 239.411L58.9803 239.33L57.7175 238.877L57.4035 238.921L56.951 239.162L56.6006 239.82V240.398L56.9145 241.136L58.2138 241.83L58.6665 242.4L58.7687 242.978L58.5278 243.431L58.1774 243.759L57.2284 244.169L56.637 244.578L56.3597 244.987V245.353L56.5349 245.843L57.1262 246.296L58.5278 246.376L59.2943 246.581L60.0608 247.194L60.3747 247.239L61.5281 247.034L61.8785 246.669L61.915 245.726L62.1632 245.638L62.9662 245.843L63.2801 245.806L63.594 245.433L63.5575 245.112L62.8567 244.454L62.6158 243.672L61.6376 243.263L61.5281 242.853L62.1267 242.729L63.3166 242.897L63.8349 242.817L64.2218 242.524L65.0248 241.625L65.3095 241.669L67.4706 242.897L68.1708 243.511L68.7329 244.329L69.0473 245.024L69.9523 247.852L70.6531 248.839L71.0693 249.124L71.8798 248.919L72.2589 248.634L72.9235 247.933L74.1864 246.171L74.9896 245.273L75.3761 244.987H75.6608H75.8583L76.5591 245.682L77.3617 246.873L77.8875 248.057L78.4496 249.899L78.727 250.272L79.1505 250.513L80.2675 250.272L80.895 250.352L81.3474 250.513L81.9756 251.295V251.828L81.3111 253.217L81.3844 253.75L81.9459 255.263L82.012 255.877L81.9459 256.82L81.5958 257.515L81.4862 258.092L81.6612 260.299L81.5595 261.491L81.8732 262.514V263.53L81.6612 264.677L81.9756 265.415L83.9025 266.519L85.7203 267.747L87.4285 268.69L87.9906 269.18L88.6914 270.159L90.648 270.648L91.0641 270.853L93.8015 272.98L91.8522 275.889L90.7425 281.422L91.2901 287.415L90.823 289.973L88.3044 294.76L85.5162 298.363L83.0702 303.282L83.4137 306.206L84.8226 308.494L86.8446 310.167L89.969 311.008L95.6847 310.255L100.955 308.94L106.102 309.371L113.358 309.838L116.015 308.457L117.76 308.859L120.483 308.391L122.841 308.186L125.863 307.616L127.71 306.506L131.382 302.741L134.514 299.211L138.587 297.398L142.77 294.344L147.216 290.411L149.201 289.71L157.516 289.834L157.502 292.378Z" fill="#C7B0B0" stroke="white" stroke-width="0.5"/>
<path d="M125.228 253.1L125.053 253.378L118.709 253.539L113.351 255.738L106.773 262.251L100.875 265.086L98.7873 266.914L94.9475 271.065L93.8015 272.98L91.0641 270.853L90.648 270.648L88.6914 270.159L87.9906 269.18L87.4285 268.69L85.7203 267.747L83.9025 266.519L81.9756 265.415L81.6612 264.677L81.8732 263.53V262.514L81.5595 261.491L81.6612 260.299L81.4862 258.092L81.5958 257.515L81.9459 256.82L82.012 255.877L81.9459 255.264L81.3844 253.75L81.3111 253.217L81.9756 251.828V251.295L81.3474 250.513L80.895 250.352L80.2674 250.272L79.1505 250.513L78.727 250.272L78.4496 249.899L77.8875 248.057L77.3617 246.873L76.5591 245.682L75.8583 244.987H75.6608L76.2156 243.555L78.7852 241.026L80.8441 240.303L84.8589 239.455L86.1946 238.614L87.3261 235.354L88.2535 234.631L89.385 234.507L91.3343 234.748L94.5677 234.887L93.1297 237.014L94.1813 240.968L96.6121 242.013L100.087 242.509L103.292 241.362L105.656 238.789L108.051 237.371L110.825 239.937L113.351 241.15L118.789 243.343L124.622 243.314L126.914 245.711L126.542 251.046L125.228 253.1Z" fill="#CCCCCC" stroke="white" stroke-width="0.5"/>
<path d="M40.5624 281.838L40.577 284.667L39.4602 286.655L35.8174 287.525L24.1739 298.809L23.1665 299.781L18.969 305.182L18.4726 306.835L17.8667 308.866L18.1806 313.098L18.2098 317.052L16.8228 319.603L12.1727 323.623L11.2163 324.449L5.55157 328.703L0.660553 312.44L0.937951 312.228L4.67556 308.567L8.9753 303.955L10.3404 302.734L11.4938 301.675L13.8371 299.226L15.6913 297.187L18.6624 293.598L19.3997 292.575L20.3779 291.435L23.1373 288.372L28.8678 280.969L32.0214 276.408L33.3792 274.215L38.8542 279.302L40.5624 281.838ZM169.948 182.197L169.598 181.021L169.473 178.645L168.985 176.526L169.437 173.244L168.576 171.103L168.605 170.05L169.218 168.325L168.232 165.68L168.327 164.488L168.729 163.45L169.086 161.229L168.78 160.358L167.853 159.204L168.094 156.544L165.174 155.703L161.466 153.97L159.881 153.488L157.019 153.364L155.136 153.912L153.545 153.656L152.713 152.918L152.749 152.166L151.851 151.011L151.121 148.862L151.275 145.895L150.88 142.708L148.837 139.244L146.799 137.723L145.734 137.46L143.31 137.424L137.156 138.557L135.689 138.549L134.689 138.286L132.711 137.307L130.776 135.889L128.535 133.557L126.79 132.607L125.571 132.798L124.907 133.133L122.593 135.75L122.155 136.656L120.651 138.118L118.169 139.924L115.038 141.524L109.978 143.439L109.022 144.162L108.27 145.573L107.854 146.362L107.299 148.431L106.715 152.238L105.62 155.279L105.102 159.043L104.218 159.898L100.948 161.368L100.108 162.427L98.7728 164.942L98.6341 168.939L99.2253 173.186L98.8091 174.289L98.5462 174.479L97.7509 175.05L96.0209 177.556L93.7433 182.709L93.5313 184.441L93.5901 186.159L95.3055 188.731L95.9839 190.157L96.9404 194.381L97.0937 196.281L96.692 197.831L95.6702 199.768L95.5975 200.36L95.5242 200.945L95.9185 201.924L97.2324 203.327L97.4074 203.656L98.6777 206.083L99.0938 207.785L98.8018 209.963L97.7872 212.164L97.8163 213.158L98.0574 213.954L97.5025 214.408L98.0574 215.869L96.3347 219.56L96.6412 222.907L98.5687 225.51L101.445 227.804L102.05 230.173L100.933 233.622L94.6556 234.748L93.1006 237.05L94.1516 241.004L96.5831 242.049L100.058 242.554L103.263 241.399L105.627 238.826L107.343 237.81L108.029 237.408L110.796 239.973L113.329 241.187L118.76 243.379L124.6 243.35L126.892 245.747L126.513 251.083L125.199 253.137L125.024 253.407L118.68 253.575L113.314 255.768L107.876 261.154L106.737 262.28L100.839 265.116L98.751 266.943L94.9112 271.094L93.7651 273.009L91.8159 275.918L90.7061 281.443L91.2537 287.437L90.7867 289.995L88.268 294.782L85.4792 298.385L83.0338 303.304L83.3773 306.228L84.7935 308.516L86.8082 310.189L89.9326 311.022L95.6411 310.27L100.919 308.954L106.058 309.385L113.314 309.853L115.972 308.471L117.716 308.873L120.439 308.406L122.79 308.209L125.819 307.639L127.666 306.528L131.338 302.763L134.47 299.233L138.543 297.421L142.719 294.366L143.938 293.291L147.172 290.433L149.158 289.732L157.472 289.849L157.56 283.753L157.815 277.182L160.473 268.054L163.203 259.451L164.363 255.79L164.509 255.527L167.553 250.059L165.998 241.443L166.991 238.643L165.685 236.545L166.911 234.119L164.721 232.723L163.495 226.504L165.765 224.311L166.56 219.034L164.459 214.4L165.634 212.69L165.429 211.681L164.05 210.088L163.772 203.714L164.13 202.998L164.809 201.639L165.218 199.015L166.991 196.61L167.473 194.966L167.831 191.019L168.641 187.321L169.729 185.172L170.036 183.908L169.948 182.197Z" fill="#CCCCCC" stroke="white" stroke-width="0.5"/>
<path d="M191.89 25.4618C188.917 26.0129 182.774 27.7765 181.982 30.4219C180.991 33.7286 179.339 36.7047 179.339 39.0194C179.339 41.3341 176.697 64.1505 178.018 66.4652C179.339 68.7799 184.624 82.9989 181.982 90.6043C179.339 98.2098 177.688 108.791 179.339 109.122C180.991 109.453 193.211 106.807 198.165 96.5564C203.119 86.3056 206.752 72.0867 205.101 66.4652C203.45 60.8438 206.092 56.8757 202.128 53.2383C198.165 49.6009 194.532 45.3022 201.138 37.0354C207.743 28.7685 195.193 25.4618 191.89 25.4618Z" fill="#FF6B00" stroke="black"/>
<path d="M125.505 51.9156C123.853 55.2223 120.22 77.7081 125.505 77.7081C130.789 77.7081 136.734 75.3934 142.349 75.0627C147.963 74.732 156.881 76.7161 161.505 75.0627C166.128 73.4093 167.119 62.4971 167.78 59.8518C168.44 57.2064 172.404 44.6408 170.092 42.3261C167.78 40.0114 164.807 40.3421 163.156 42.3261C161.505 44.3101 157.872 53.2383 152.257 53.8997C146.642 54.561 143.009 57.8677 140.037 53.8997C137.064 49.9316 134.752 48.6089 132.11 49.2702C129.468 49.9316 128.477 48.2782 125.505 51.9156Z" fill="#0047FF"/>
<path d="M161.505 81.3455C160.734 80.7946 158.268 79.626 154.569 79.3615C149.945 79.0308 130.459 79.3615 127.156 81.3455C123.853 83.3295 122.202 91.5964 122.532 97.2178C122.862 102.839 126.826 110.775 133.431 114.743C140.037 118.712 151.596 123.672 156.55 123.672C161.505 123.672 169.101 124.002 167.78 120.365C166.459 116.727 162.826 111.106 161.505 108.13C160.184 105.154 156.55 96.2258 156.55 91.927C156.55 87.6283 161.505 84.9829 161.505 81.3455Z" fill="#0047FF"/>
<path d="M125.505 51.9156C123.853 55.2223 120.22 77.7081 125.505 77.7081C130.789 77.7081 136.734 75.3934 142.349 75.0627C147.963 74.732 156.881 76.7161 161.505 75.0627C166.128 73.4093 167.119 62.4971 167.78 59.8518C168.44 57.2064 172.404 44.6408 170.092 42.3261C167.78 40.0114 164.807 40.3421 163.156 42.3261C161.505 44.3101 157.872 53.2383 152.257 53.8997C146.642 54.561 143.009 57.8677 140.037 53.8997C137.064 49.9316 134.752 48.6089 132.11 49.2702C129.468 49.9316 128.477 48.2782 125.505 51.9156Z" stroke="black"/>
<path d="M161.505 81.3455C160.734 80.7946 158.268 79.626 154.569 79.3615C149.945 79.0308 130.459 79.3615 127.156 81.3455C123.853 83.3295 122.202 91.5964 122.532 97.2178C122.862 102.839 126.826 110.775 133.431 114.743C140.037 118.712 151.596 123.672 156.55 123.672C161.505 123.672 169.101 124.002 167.78 120.365C166.459 116.727 162.826 111.106 161.505 108.13C160.184 105.154 156.55 96.2258 156.55 91.927C156.55 87.6283 161.505 84.9829 161.505 81.3455Z" stroke="black"/>
<path d="M93.4679 215.599C94.789 215.599 106.679 228.164 106.349 230.479C106.018 232.794 101.064 242.052 101.064 247.343C101.064 252.634 105.028 263.216 101.064 270.16C97.1009 277.104 90.4954 281.733 89.5046 285.04C88.5138 288.347 87.8532 299.59 83.5596 298.267C79.2661 296.944 78.9358 294.629 74.3119 293.968C69.6881 293.307 62.7523 293.307 62.422 291.323C62.0918 289.339 69.0275 274.789 69.3578 270.16C69.6881 265.53 75.9633 258.586 77.6147 255.279C79.2661 251.973 86.5321 241.722 85.5413 238.084C84.5505 234.447 91.4862 216.26 93.4679 215.599Z" fill="#09FFFF"/>
<path d="M63.4128 301.574C65.3945 300.912 69.6881 300.912 71.6697 301.574C73.6514 302.235 77.9449 303.888 77.6147 305.872C77.2844 307.856 78.2752 311.163 75.3027 312.155C72.3303 313.147 71.3394 312.155 70.6789 310.502C70.0183 308.848 67.3761 306.864 66.055 305.872C64.7339 304.88 63.4128 302.235 63.4128 301.574Z" fill="#09FFFF"/>
<path d="M93.4679 215.599C94.789 215.599 106.679 228.164 106.349 230.479C106.018 232.794 101.064 242.052 101.064 247.343C101.064 252.634 105.028 263.216 101.064 270.16C97.1009 277.104 90.4954 281.733 89.5046 285.04C88.5138 288.347 87.8532 299.59 83.5596 298.267C79.2661 296.944 78.9358 294.629 74.3119 293.968C69.6881 293.307 62.7523 293.307 62.422 291.323C62.0918 289.339 69.0275 274.789 69.3578 270.16C69.6881 265.53 75.9633 258.586 77.6147 255.279C79.2661 251.973 86.5321 241.722 85.5413 238.084C84.5505 234.447 91.4862 216.26 93.4679 215.599Z" stroke="black"/>
<path d="M63.4128 301.574C65.3945 300.912 69.6881 300.912 71.6697 301.574C73.6514 302.235 77.9449 303.888 77.6147 305.872C77.2844 307.856 78.2752 311.163 75.3027 312.155C72.3303 313.147 71.3394 312.155 70.6789 310.502C70.0183 308.848 67.3761 306.864 66.055 305.872C64.7339 304.88 63.4128 302.235 63.4128 301.574Z" stroke="black"/>
<path d="M89.8349 286.032C89.5046 288.016 88.1835 296.613 85.5413 297.936C82.8991 299.259 81.2477 307.195 79.5963 308.187C77.945 309.179 77.6147 321.745 80.2569 322.737C82.8991 323.729 82.2385 328.689 85.5413 329.681C88.844 330.673 92.8073 333.649 94.789 332.987C96.7706 332.326 99.4128 337.286 109.651 336.956C119.89 336.625 122.202 337.948 124.514 336.956C126.826 335.964 130.789 331.003 132.11 329.019C133.431 327.035 139.046 307.856 139.046 303.888C139.046 299.92 138.385 255.61 139.706 252.634C141.028 249.658 142.679 242.052 143.339 239.076C144 236.1 143.009 228.495 145.982 226.511C148.954 224.527 151.266 216.591 150.936 207.001C150.606 197.412 147.303 190.467 145.982 186.83C144.661 183.193 143.009 179.886 147.963 179.886C152.917 179.886 152.917 177.241 153.908 174.595C154.899 171.95 154.239 156.739 154.569 154.093C154.899 151.448 155.89 150.456 153.908 147.811C151.927 145.165 150.606 139.544 145.321 142.189C140.037 144.835 142.679 151.117 138.716 150.125C134.752 149.133 125.505 141.197 123.523 138.552C121.541 135.906 122.202 131.938 120.22 129.624C118.239 127.309 113.945 124.994 113.284 122.349C112.624 119.704 108.991 120.696 108.661 118.05C108.33 115.405 107.339 110.775 105.028 107.469C102.716 104.162 103.706 103.501 101.064 101.847C98.422 100.194 96.7706 99.8632 95.7798 101.186C94.789 102.509 97.1009 108.13 96.4404 109.783C95.7798 111.437 94.4587 122.018 95.7798 124.002C97.1009 125.986 97.4312 128.301 103.046 128.962C108.661 129.624 108 157.731 107.339 161.699C106.679 165.667 103.376 173.603 102.055 174.595C100.734 175.587 103.376 188.483 101.394 190.137C99.4128 191.79 100.404 195.097 98.422 199.396C96.4404 203.694 96.7706 202.372 96.7706 204.686C96.7706 207.001 96.1101 208.985 94.1284 210.969C92.1468 212.953 93.4679 215.599 93.4679 215.599C97.7615 219.346 106.349 227.437 106.349 229.818C106.349 232.794 100.734 243.706 101.064 247.343C101.394 250.981 104.367 264.538 101.725 268.837C99.0826 273.136 89.1743 285.04 89.8349 286.032Z" fill="#FF00F5" stroke="black"/>
<path d="M89.1743 110.114C90.1651 108.461 91.156 105.154 91.4862 103.501C91.8165 101.847 92.1468 100.855 93.4679 101.186C94.789 101.517 95.4495 101.517 95.4495 102.509C95.4495 103.302 95.8901 105.926 96.1101 107.138L96.4404 109.122C95.6695 113.09 94.2605 121.291 94.789 122.349C95.4495 123.672 97.4312 127.64 99.4128 128.301C101.394 128.962 103.706 129.293 104.367 130.285C105.028 131.277 114.275 158.723 101.725 174.595V189.145C101.064 189.806 99.7431 191.327 99.7431 192.121C99.7431 193.113 98.0917 202.041 96.4404 202.702C96.4404 205.348 95.7798 209.316 92.8073 211.631V215.599C91.4862 218.244 88.778 223.733 88.5138 224.527C88.1835 225.519 84.8807 236.1 85.211 237.423C85.4752 238.481 85.3213 239.407 85.211 239.738L82.5688 246.021L76.9541 255.61L71.6697 263.216L70.0184 266.853L69.0275 269.168L68.367 273.466L65.3945 281.403L63.0826 287.355L62.0917 290.992C60.8808 291.543 57.5339 292.579 53.8349 292.315C49.211 291.984 50.8624 289.339 48.2202 288.016C45.578 286.693 39.633 284.048 38.3119 282.725C36.9908 281.403 27.0826 279.749 28.734 278.426C30.3853 277.104 47.2294 251.311 49.8716 244.698C52.5138 238.084 61.1009 222.543 62.0917 219.567C63.0826 216.591 66.3853 201.049 69.0275 198.404C71.6697 195.758 71.3395 186.499 72.9908 182.862C74.6422 179.225 76.9541 170.627 77.6147 167.32C78.2752 164.014 81.2477 151.448 81.9083 148.803C82.5688 146.157 86.2018 125.656 87.1927 124.002C88.1835 122.349 87.8532 111.106 88.5138 110.775C89.0422 110.511 89.1743 110.224 89.1743 110.114Z" fill="#2DFF1B"/>
<path d="M110.642 52.2463H117.248H124.514L124.844 52.577L123.853 55.8837L123.193 62.1665L122.532 68.1186V72.4173L122.862 75.0627C122.092 78.3694 120.617 85.7104 120.881 88.6203C121.211 92.2577 120.881 96.5564 120.22 97.5485C119.56 98.5405 115.266 102.839 112.954 103.501C110.642 104.162 106.679 104.162 105.028 103.501C103.376 102.839 101.394 101.847 101.394 100.194C101.394 98.5405 100.734 93.9111 101.394 93.2497C102.055 92.5884 106.018 87.6283 107.009 84.9829C108 82.3375 108.33 77.7081 106.679 77.0467C105.028 76.3854 107.67 67.4572 108.33 65.1425C108.991 62.8278 110.972 53.569 110.642 52.2463Z" fill="#2DFF1B"/>
<path d="M117.248 52.2463H124.514M101.725 174.595C114.275 158.723 105.028 131.277 104.367 130.285C103.706 129.293 101.395 128.962 99.4128 128.301C97.4312 127.64 95.4495 123.672 94.789 122.349C94.2606 121.291 95.6695 113.09 96.4404 109.122L96.1101 107.138C95.8901 105.926 95.4495 103.302 95.4495 102.509C95.4495 101.517 94.789 101.517 93.4679 101.186C92.1468 100.855 91.8165 101.847 91.4862 103.501C91.156 105.154 90.1651 108.461 89.1743 110.114C89.1743 110.224 89.0422 110.511 88.5138 110.775C87.8532 111.106 88.1835 122.349 87.1927 124.002C86.2018 125.656 82.5688 146.157 81.9083 148.803C81.2477 151.448 78.2752 164.014 77.6147 167.32C76.9541 170.627 74.6422 179.225 72.9908 182.862C71.3395 186.499 71.6697 195.758 69.0275 198.404C66.3853 201.049 63.0826 216.591 62.0917 219.567C61.1009 222.543 52.5138 238.084 49.8716 244.698C47.2294 251.311 30.3853 277.104 28.734 278.426C27.0826 279.749 36.9908 281.403 38.3119 282.725C39.633 284.048 45.578 286.693 48.2202 288.016C50.8624 289.339 49.211 291.984 53.8349 292.315C57.534 292.579 60.8808 291.543 62.0917 290.992L63.0826 287.355L65.3945 281.403L68.367 273.466L69.0275 269.168L70.0184 266.853L71.6697 263.216L76.9541 255.61L82.5688 246.021L85.211 239.738C85.3213 239.407 85.4752 238.481 85.211 237.423C84.8807 236.1 88.1835 225.519 88.5138 224.527C88.778 223.733 91.4862 218.244 92.8073 215.599L101.725 174.595ZM101.725 174.595C101.725 186.169 101.725 189.145 101.725 189.145V174.595ZM101.725 174.595V189.145V174.595ZM101.725 189.145C101.064 189.806 99.7431 191.327 99.7431 192.121C99.7431 193.113 98.0917 202.041 96.4404 202.702C96.4404 205.348 95.7798 209.316 92.8073 211.631L101.725 189.145ZM92.8073 211.631C92.8073 213.615 92.8073 215.599 92.8073 215.599V211.631ZM92.8073 211.631V215.599V211.631ZM110.642 52.2463C111.963 52.2463 115.134 52.2463 117.248 52.2463H110.642ZM110.642 52.2463C110.972 53.569 108.991 62.8278 108.33 65.1425C107.67 67.4572 105.028 76.3854 106.679 77.0467C108.33 77.7081 108 82.3375 107.009 84.9829C106.018 87.6283 102.055 92.5884 101.395 93.2497C100.734 93.9111 101.395 98.5405 101.395 100.194C101.395 101.847 103.376 102.839 105.028 103.501C106.679 104.162 110.642 104.162 112.954 103.501C115.266 102.839 119.56 98.5405 120.22 97.5485C120.881 96.5564 121.211 92.2577 120.881 88.6203C120.617 85.7104 122.092 78.3694 122.862 75.0627L122.532 72.4173V68.1186L123.193 62.1665L123.853 55.8837L124.844 52.577L124.514 52.2463H110.642ZM110.642 52.2463H117.248H110.642ZM117.248 52.2463C119.361 52.2463 122.973 52.2463 124.514 52.2463H117.248Z" stroke="black"/>
<path d="M192.543 75H190.363V60.5508L185.992 62.1562V60.1875L192.203 57.8555H192.543V75Z" fill="black"/>
<path d="M148.598 106H137.418V104.441L143.324 97.8789C144.199 96.8867 144.801 96.082 145.129 95.4648C145.465 94.8398 145.633 94.1953 145.633 93.5312C145.633 92.6406 145.363 91.9102 144.824 91.3398C144.285 90.7695 143.566 90.4844 142.668 90.4844C141.59 90.4844 140.75 90.793 140.148 91.4102C139.555 92.0195 139.258 92.8711 139.258 93.9648H137.09C137.09 92.3945 137.594 91.125 138.602 90.1562C139.617 89.1875 140.973 88.7031 142.668 88.7031C144.254 88.7031 145.508 89.1211 146.43 89.957C147.352 90.7852 147.812 91.8906 147.812 93.2734C147.812 94.9531 146.742 96.9531 144.602 99.2734L140.031 104.23H148.598V106Z" fill="black"/>
<path d="M122.57 205.414H124.199C125.223 205.398 126.027 205.129 126.613 204.605C127.199 204.082 127.492 203.375 127.492 202.484C127.492 200.484 126.496 199.484 124.504 199.484C123.566 199.484 122.816 199.754 122.254 200.293C121.699 200.824 121.422 201.531 121.422 202.414H119.254C119.254 201.062 119.746 199.941 120.73 199.051C121.723 198.152 122.98 197.703 124.504 197.703C126.113 197.703 127.375 198.129 128.289 198.98C129.203 199.832 129.66 201.016 129.66 202.531C129.66 203.273 129.418 203.992 128.934 204.688C128.457 205.383 127.805 205.902 126.977 206.246C127.914 206.543 128.637 207.035 129.145 207.723C129.66 208.41 129.918 209.25 129.918 210.242C129.918 211.773 129.418 212.988 128.418 213.887C127.418 214.785 126.117 215.234 124.516 215.234C122.914 215.234 121.609 214.801 120.602 213.934C119.602 213.066 119.102 211.922 119.102 210.5H121.281C121.281 211.398 121.574 212.117 122.16 212.656C122.746 213.195 123.531 213.465 124.516 213.465C125.562 213.465 126.363 213.191 126.918 212.645C127.473 212.098 127.75 211.312 127.75 210.289C127.75 209.297 127.445 208.535 126.836 208.004C126.227 207.473 125.348 207.199 124.199 207.184H122.57V205.414Z" fill="black"/>
<path d="M77.5703 226.27H79.9375V228.039H77.5703V232H75.3906V228.039H67.6211V226.762L75.2617 214.938H77.5703V226.27ZM70.082 226.27H75.3906V217.902L75.1328 218.371L70.082 226.27Z" fill="black"/>
<path d="M78.4141 270.445L79.2812 261.938H88.0234V263.941H81.1211L80.6055 268.594C81.4414 268.102 82.3906 267.855 83.4531 267.855C85.0078 267.855 86.2422 268.371 87.1562 269.402C88.0703 270.426 88.5273 271.812 88.5273 273.562C88.5273 275.32 88.0508 276.707 87.0977 277.723C86.1523 278.73 84.8281 279.234 83.125 279.234C81.6172 279.234 80.3867 278.816 79.4336 277.98C78.4805 277.145 77.9375 275.988 77.8047 274.512H79.8555C79.9883 275.488 80.3359 276.227 80.8984 276.727C81.4609 277.219 82.2031 277.465 83.125 277.465C84.1328 277.465 84.9219 277.121 85.4922 276.434C86.0703 275.746 86.3594 274.797 86.3594 273.586C86.3594 272.445 86.0469 271.531 85.4219 270.844C84.8047 270.148 83.9805 269.801 82.9492 269.801C82.0039 269.801 81.2617 270.008 80.7227 270.422L80.1484 270.891L78.4141 270.445Z" fill="black"/>
<path d="M77.9258 386.926V388.766H77.5273C75.8398 388.797 74.4961 389.297 73.4961 390.266C72.4961 391.234 71.918 392.598 71.7617 394.355C72.6602 393.324 73.8867 392.809 75.4414 392.809C76.9258 392.809 78.1094 393.332 78.9922 394.379C79.8828 395.426 80.3281 396.777 80.3281 398.434C80.3281 400.191 79.8477 401.598 78.8867 402.652C77.9336 403.707 76.6523 404.234 75.043 404.234C73.4102 404.234 72.0859 403.609 71.0703 402.359C70.0547 401.102 69.5469 399.484 69.5469 397.508V396.676C69.5469 393.535 70.2148 391.137 71.5508 389.48C72.8945 387.816 74.8906 386.965 77.5391 386.926H77.9258ZM75.0781 394.613C74.3359 394.613 73.6523 394.836 73.0273 395.281C72.4023 395.727 71.9688 396.285 71.7266 396.957V397.754C71.7266 399.16 72.043 400.293 72.6758 401.152C73.3086 402.012 74.0977 402.441 75.043 402.441C76.0195 402.441 76.7852 402.082 77.3398 401.363C77.9023 400.645 78.1836 399.703 78.1836 398.539C78.1836 397.367 77.8984 396.422 77.3281 395.703C76.7656 394.977 76.0156 394.613 75.0781 394.613Z" fill="black"/>
</svg>
